<svg id="Componente_51_12" data-name="Componente 51 – 12" xmlns="http://www.w3.org/2000/svg" width="1920" height="475" viewBox="0 0 1920 475">
  <rect id="Rectángulo_181" data-name="Rectángulo 181" width="1920" height="475" fill="rgba(235,204,201,0.2)"/>
  <g id="Componente_42_4" data-name="Componente 42 – 4" transform="translate(101 45.965)">
    <path id="Trazado_209" data-name="Trazado 209" d="M270.769,524.239c6.151-4.7,13.017-8.364,19.865-11.972,9.857-5.193,19.828-10.348,30.522-13.471,10.8-3.152,22.088-4.16,33.293-5.153,8.9-.788,17.962-1.567,26.685.355,5.948,1.31,11.548,3.837,17.068,6.411,11.561,5.391,23.382,11.366,31.34,21.335C443.317,539,442.123,564.1,434.78,584.927c-2.291,6.5-5.159,12.9-9.567,18.192-10.837,13.013-29.071,17.345-41.572,28.768-5.833,5.331-10.3,12.114-16.64,16.838-8.5,6.338-19.458,8.313-30.038,8.983-9.915.628-20.05.245-29.476-2.9-12.326-4.108-22.757-12.744-30.931-22.844s-14.3-21.674-20.192-33.253c-5.766-11.325-13.742-26.815-10.137-39.724C250.026,545.389,259.668,532.723,270.769,524.239Z" transform="translate(-223.779 -380.651)" fill="#e5e5e5"/>
    <path id="Trazado_210" data-name="Trazado 210" d="M426.248,569.68a38.708,38.708,0,0,1-15.6-3.3c-6.869-3.219-12.192-8.933-17.332-14.511-4.28-4.645-8.824-9.933-8.8-16.249.021-6.709,5.314-12.306,11.124-15.66s12.406-5.23,18.061-8.84c7.071-4.516,12.492-11.63,20.284-14.742,13.387-5.345,28.61,3.211,37.711,14.39C495.856,540.449,454.866,570.313,426.248,569.68Z" transform="translate(-223.779 -380.651)" fill="#5cc398"/>
    <path id="Trazado_211" data-name="Trazado 211" d="M389.548,478.4c-8.066-8.776-21.594-14.763-36.185-16.016a56.146,56.146,0,0,0-19.369,1.782,83.514,83.514,0,0,0-16.963,6.863c-1.466.766-2.908,1.578-4.359,2.371-1.428.781-2.91,1.451-4.3,2.291-.474.285-.933.591-1.388.906-.177.122-.84.645-1.05.362-.243-.328.839-1.461,1.021-1.724.575-.828,1.113-1.648,1.623-2.47q2.248-3.623,4.854-7.005c1.786-2.324,3.407-4.74,6.06-6.147a44.986,44.986,0,0,1,9.592-3.486l1.274-.337A48.261,48.261,0,0,0,341.57,451.8a45.589,45.589,0,0,0,12.906-10.066c5.992-6.953,10.688-14.922,15.23-22.628,2.768-4.7,5.63-9.556,8.759-14.139a.726.726,0,0,0-.089-.945.713.713,0,0,0-.937-.064c-5.534,3.968-11.911,6.947-18.078,9.828-8.009,3.742-16.29,7.611-22.851,13.7A75.39,75.39,0,0,0,325.33,440.7a102.914,102.914,0,0,0-9.146,17c-1.066,2.49-2.957,4.578-4.465,6.822-2.232,3.721-.793-.528-.793-.528,1.067-3.6,2.251-7.19,3.406-10.69q2.006-6.076,3.857-12.2a3.321,3.321,0,0,1,.324-.728,20.97,20.97,0,0,1,1.633-2.089q1.145-1.489,2.229-3.027a79.736,79.736,0,0,0,4.656-7.4,49.087,49.087,0,0,0,5.548-14.581c1.253-6.72-.937-12.827-3.054-18.732-1.495-4.17-3.041-8.482-3.4-13.028a.929.929,0,0,0-.821-.854,1.045,1.045,0,0,0-1.136.6c-6.267,15.538-12.744,35.765-7.923,55.542a5.978,5.978,0,0,1,.022,3.106q-3.016,8.975-5.362,18.147c-.556,2.172-1.048,4.361-1.6,6.534-.354,1.4-.621,2.823-1.005,4.216a8.445,8.445,0,0,1-.676,1.9c-.359.638-.822,1.232-1.24,1.833-1,1.435-2.033,2.846-3.134,4.2-2.445,3.022-5.135,5.906-7.738,8.7-4.518,4.843-9.19,9.852-12.7,15.716a35.518,35.518,0,0,0-1.842,3.519l-.344.778q-.557,1.3-1.042,2.69c-.854,2.244-.556-.105-.556-.105.105-1.088.224-2.161.358-3.226l.542-3.752c1.089-7.351,3.187-14.494,5.088-21.661,1.012-3.819,3.187-7.27,5.065-10.719,3.988-7.324,8.112-14.9,9.013-23.642a98.622,98.622,0,0,0-5.712-43.624c-.461-1.33-.987-2.775-1.624-4.458-.428-1.136-1.1-2.662-1.978-2.806a1.037,1.037,0,0,0-.977.469,6.368,6.368,0,0,0-.681,1.129c-.064.125-.128.249-.192.368-.284.522-.564,1.067-.834,1.621l-.073.15a17.393,17.393,0,0,0-.71,1.594c-.093.253-.172.511-.25.77a10.452,10.452,0,0,1-.342,1,27.378,27.378,0,0,1-1.272,2.512c-.169.307-.338.614-.5.922l-.141.263c-.573,1.078-1.165,2.191-1.72,3.3a43.917,43.917,0,0,0-1.887,4.241,70.592,70.592,0,0,0-3.963,22.334c-.057,1.673-1.107.344-1.107.344a57.691,57.691,0,0,0-6.171-6.109,61.327,61.327,0,0,1-5.929-5.807,24.628,24.628,0,0,1-2.443-3.378c-.371-.625-.679-1.274-1-1.922a1.828,1.828,0,0,0-2.32-.63c-.686.34-.341,1.3-.246,1.87q.205,1.242.455,2.475.482,2.383,1.142,4.725a53.792,53.792,0,0,0,3.236,8.617,48.937,48.937,0,0,0,3.094,5.51,53.136,53.136,0,0,0,6.947,7.978c3.791,3.818,7.711,7.765,9.231,12.636,3.142,10.069.685,20.372-1.541,30.333-.091.409-.169.822-.254,1.232q-.18.87-.352,1.743c-.054.274-.256,2.366-.751,2.285-.238-.039-.286-.5-.3-.864a49.81,49.81,0,0,0-.958-7.362,79.882,79.882,0,0,0-2.205-9.206,73.763,73.763,0,0,0-3.23-8.635,76.126,76.126,0,0,0-4.309-8.22q-.463-.77-.944-1.528c-5.028-7.94-11.111-14.2-20.343-20.943a121.5,121.5,0,0,1-12.483-10.979c-2.646-2.552-5.382-5.191-8.25-7.632a.862.862,0,0,0-1.012-.04.813.813,0,0,0-.394.883c4.176,16.912,9.3,30.487,20.739,41.768,3.106,3.063,6.384,6,9.554,8.837,2.39,2.14,4.781,4.278,7.112,6.481,2.287,2.161,4.517,4.385,6.616,6.73a67.041,67.041,0,0,1,5.767,7.359q1.318,1.968,2.466,4.045a11.689,11.689,0,0,1,1.049,2.114,10.03,10.03,0,0,1,.371,2.526,13.684,13.684,0,0,1-.011,1.845c-.057.6-.223,1.221-.223,1.821-.173,1.6-.315,3.212-.4,4.824q-.029.543-.048,1.088a250.6,250.6,0,0,1-5.484,43.435c-4.856,22.888-11.505,54.233-32.868,71.766a.7.7,0,0,0-.09,1.005.714.714,0,0,0,.547.273.681.681,0,0,0,.428-.159c7.793-6.2,14.137-14.463,19.394-25.255,4.071-8.354,7.436-18.1,10.588-30.655,2.46-7.265,8.243-12.1,13.684-15.571a18.9,18.9,0,0,1,5.783-2.012c1.2-.249,2.42-.5,3.68-.749,11.579-2.33,24.7-4.972,33.413-13.359,9.241-8.9,14.253-20.389,15.321-35.134a1.015,1.015,0,0,0-.581-.963.806.806,0,0,0-.93.143c-4.771,4.47-10.714,6.98-16.461,9.408-5.058,2.137-10.288,4.345-14.717,7.883-9.121,7.282-16.409,16.966-19.995,26.568a.551.551,0,0,0,.283.683.49.49,0,0,0,.647-.173l1.094-1.7c7.669-11.919,14.911-23.177,28.6-29.14.868-.379,1.736-.752,2.6-1.126a138.141,138.141,0,0,0,12.605-5.942,16.782,16.782,0,0,0,2.488-1.825c.632-.529,1.422-1.186,1.619-1.066.108.063.3.47-.159,2.895-2.286,11.908-8.148,27.506-23.086,34.186a110.137,110.137,0,0,1-17.606,5.615c-2.85.736-5.78,1.491-8.667,2.359,2.162-1.162,4.37-2.273,6.52-3.355,4.052-2.039,7.88-3.964,11.273-6.125,11.337-7.218,26.862-17.1,31.422-33.057a.55.55,0,0,0-.321-.68.535.535,0,0,0-.683.275c-8.092,15.931-21.712,28.12-44.16,39.523-.754.383-1.527.769-2.31,1.161-7.146,3.572-15.2,7.6-19.665,14.189q.248-1.07.486-2.131c2.878-12.79,5.943-28.01,6.843-43.887A53.435,53.435,0,0,1,292.079,492.2q1.281-1.354,2.567-2.693c4.333-4.526,8.5-10.512,15.308-10.934A20.549,20.549,0,0,1,318,480.147c2.3.833,4.527,1.853,6.753,2.863,5.992,2.719,12.188,5.533,18.048,4.274,4.451-.954,7.761-3.134,11.264-5.444.8-.529,1.623-1.07,2.475-1.608,9.716-6.145,19.209-3.761,29.261-1.236.986.247,1.979.5,2.979.74a.74.74,0,0,0,.824-.381A.8.8,0,0,0,389.548,478.4ZM321.16,452.074c7.3-13.1,14.985-24.394,28.72-31.414,2.506-1.282,5.11-2.492,7.628-3.663,3.53-1.641,7.179-3.338,10.635-5.262l.821-.456c1.073-.6,2.163-1.2,3.236-1.839,0,0,3.012-2.434.938.966-1.444,2.365-2.879,4.741-4.375,7.271-5.6,9.459-11.382,19.239-19.495,26.151-4.986,4.25-10.933,6.288-16.685,8.258a83.17,83.17,0,0,0-9.725,3.8l-.325-.524c3.1-3.185,6.3-6.215,9.651-9.387,3.778-3.58,7.685-7.281,11.474-11.255a.476.476,0,0,0-.006-.673.558.558,0,0,0-.41-.187.5.5,0,0,0-.314.11c-7.453,6.027-14.608,12.295-21.3,18.659C319.8,454.352,321.16,452.074,321.16,452.074Zm-3.3-46.739a82.071,82.071,0,0,1,5.613-17.111s1.368-3.8,1.513-.436a9.42,9.42,0,0,0,.431,2.054c.663,2.322,1.476,4.55,2.263,6.7,2.481,6.8,4.825,13.218,1.84,21.043a102.081,102.081,0,0,1-8.771,17.461c-1.763,2.933-.865-.5-.865-.5q.117-.526.226-1.036c2.187-10.293,1.807-21.2,1.07-31.454a.5.5,0,0,0-.5-.475h-.021a.556.556,0,0,0-.568.472,124.052,124.052,0,0,0-.833,14.413,115.676,115.676,0,0,1-.836,14.2c-.411,3.669-.875-.019-.875-.019C316.789,422.527,316.293,413.732,317.859,405.335Zm-40.495,47.03c-1.043-1.14-2.175-2.241-3.34-3.372l-.807-.788a54.106,54.106,0,0,1-10.29-14.09,44.824,44.824,0,0,1-2.459-5.761q-.5-1.455-.883-2.946c-.3-1.2-.492-2.369-.873-3.549a.455.455,0,0,1-.017-.339c.142-.275.769.6,1.153,1.172.148.22.26.4.294.445a27.329,27.329,0,0,0,4.142,4.593l.8.711c2.206,1.953,4.421,3.906,6.455,6.041,1.888,1.982,4.2,4.229,5.108,6.879.09.264.616,1.671.056,1.572-.226-.04-.522-.533-.643-.715a13.268,13.268,0,0,0-5.069-4.635.6.6,0,0,0-.7.927c4.362,4.713,7,8.763,8.106,13.3C279.121,454.745,277.364,452.365,277.364,452.365Zm4.05,3.216a92.5,92.5,0,0,1-2.625-10.072,54.853,54.853,0,0,1-.756-10.382,62.946,62.946,0,0,1,2.882-19.241,38.964,38.964,0,0,1,2.3-5.587,86.3,86.3,0,0,0,5.484-11.843c.121-.354.217-1.113.563-1.323.436-.266.712.574.872,1.26.081.345.133.651.162.756,1.4,5.1,3.4,10.045,4.664,15.208q.549,2.246,1.007,4.512c.536,2.672.954,5.312,1.241,7.846a78.544,78.544,0,0,1,.5,7.906,68.346,68.346,0,0,1-.364,7.948c-.2,1.9-.488,3.807-.855,5.658-1.37,6.914-4.592,13.147-7.709,19.174l-.578,1.119c-1.761,2.8-1.355-.317-1.355-.317.755-5.8,1.252-11.706,1.79-17.531a113.172,113.172,0,0,0,.424-18.481.553.553,0,0,0-.578-.513.584.584,0,0,0-.605.521c-.921,9.321-1.44,18.9-1.942,28.155-.127,2.345-.254,4.688-.381,6.988-.614,4.918-1.225-.042-1.225-.042A77.761,77.761,0,0,0,281.414,455.581Zm-6.063,32.22c-.1.032-.267-.239-.311-.3-.07-.1-.136-.194-.2-.3-.394-.653-.642-1.451-.966-2.128-.514-1.073-1.065-2.127-1.663-3.155q-.447-.77-.926-1.521a8.743,8.743,0,0,0-.987-1.482q-1.137-1.631-2.423-3.149c-3.123-3.681-6.634-7.093-10.03-10.391-4.835-4.7-9.836-9.555-13.756-15.245a.4.4,0,0,0-.545-.1.39.39,0,0,0-.155.524c3.374,6.249,8.073,10.81,13.049,15.638,2.06,2,4.191,4.069,6.206,6.257a61.975,61.975,0,0,1,10.561,15.54c.641,1.318-.471.252-.471.252a114.447,114.447,0,0,0-14.78-15.038c-13.116-11.609-24.4-22.653-29.655-40.283-.78-2.618-2.085-7-1.6-7.29a.137.137,0,0,1,.07-.017c.494,0,2.28,1.8,4.332,3.871q.68.687,1.46,1.47.491.49.981.987a63.261,63.261,0,0,0,5.927,5.492c1.78,1.387,3.662,2.757,5.482,4.082,6.007,4.373,12.217,8.895,16.41,15.121,2.018,3,3.915,6.077,5.645,9.25a92.893,92.893,0,0,1,4.372,9.132,82.355,82.355,0,0,1,3.167,9.18C274.645,484.55,275.625,487.712,275.351,487.8Zm110.286-10.876c-.151.212-.911-.055-1.079-.1s-.337-.092-.5-.143c-.639-.17-1.388-.4-2.027-.6-.585-.182-1.184-.37-1.754-.534-6.753-1.941-12.254-2.3-16.35-1.059a35.9,35.9,0,0,0-9.352,4.939,38.912,38.912,0,0,1-8.136,4.506c-7.081,2.563-13.03.227-19.327-2.247-.925-.363-1.86-.73-2.809-1.087a50.251,50.251,0,0,0-13.059-3.255c-2.151-.177,0-.825,0-.825,7.91-2.48,17.121-2.691,27.99-.663a.4.4,0,0,0,.476-.312.419.419,0,0,0-.254-.519,44.084,44.084,0,0,0-20.842-2.007c-1.977.4-.08-.618-.08-.618l.468-.237c6.3-3.192,12.806-6.492,19.88-7.509a62.707,62.707,0,0,1,30.053,2.9c4.884,1.761,10,3.76,14.2,7.105.522.417,1.012.878,1.559,1.261a6.022,6.022,0,0,1,.694.549C385.48,476.556,385.745,476.773,385.637,476.925Z" transform="translate(-223.779 -380.651)" fill="#0d927d"/>
  </g>
  <g id="Componente_43_7" data-name="Componente 43 – 7" transform="translate(1572.839 207.244)">
    <path id="Trazado_212" data-name="Trazado 212" d="M1190.551,578.087q-3.293-6.651-6.687-13.24c-10.58-20.636-24.955-48.995-47.9-57.469-24.176-8.929-53.215-8.216-77.632-.874-13.527,4.067-26.287,10.3-38.945,16.571-18.218,9.021-36.5,18.251-52.557,30.725-16.209,12.6-29.772,28.211-43.222,43.718-10.681,12.314-21.525,24.883-28.012,39.838-4.423,10.2-6.675,21.178-8.771,32.092a302.309,302.309,0,0,0-4.673,30.811h308.4Z" transform="translate(-843.39 -432.503)" fill="#fff"/>
    <path id="Trazado_213" data-name="Trazado 213" d="M954.729,458.488c16.432-14.1,36.755-26.978,58.2-24.005,28.578,3.963,45.893,33.974,52.636,62.026,5.7,23.7,6.728,49.858-4.83,71.317-9.2,17.071-25.364,29.324-42.3,38.764-20.211,11.265-42.861,19.411-65.983,18.574S905.76,613.3,894,593.376C863.778,542.2,919.177,488.982,954.729,458.488Z" transform="translate(-843.39 -432.503)" fill="#f2e0df"/>
    <path id="Trazado_214" data-name="Trazado 214" d="M1048.107,487.4a93.35,93.35,0,0,1,6.806-7.246c1.179-1.166,2.419-2.271,3.656-3.378,1.275-1.061,2.513-2.173,3.828-3.191,2.583-2.1,5.313-4.015,8.095-5.865a91.068,91.068,0,0,1,8.724-4.977,69.228,69.228,0,0,1,9.318-3.893c1.592-.571,3.231-1,4.863-1.461.82-.217,1.658-.362,2.487-.546s1.659-.357,2.52-.465a44,44,0,0,1,20.375,1.669,47.223,47.223,0,0,1,17.531,10.23,41.733,41.733,0,0,1,6.566,7.725,37.268,37.268,0,0,1,4.428,9.074,33.334,33.334,0,0,1,1.7,9.934,36.281,36.281,0,0,1-1.277,9.992,43.239,43.239,0,0,1-3.756,9.371,60.158,60.158,0,0,1-5.729,8.29c-4.178,5.223-8.767,10.043-13.022,15-1.062,1.241-2.077,2.5-3.072,3.767l-1.633,2-1.751,1.9a42,42,0,0,1-8.1,6.455,39.642,39.642,0,0,1-19.814,5.907l-1.314.025c-.437-.006-.875-.037-1.312-.055l-1.313-.064c-.442-.036-.89-.1-1.334-.157a34,34,0,0,1-5.162-1.13,56.033,56.033,0,0,1-9.557-3.867,78.792,78.792,0,0,1-8.715-5.287,74.207,74.207,0,0,1-7.947-6.337,63.665,63.665,0,0,1-6.983-7.4,49.249,49.249,0,0,1-5.583-8.548,31.4,31.4,0,0,1-3.263-9.712l-.176-1.277-.066-1.291a22.194,22.194,0,0,1,.047-2.577,33.623,33.623,0,0,1,.827-4.992,41.407,41.407,0,0,1,3.573-9.346A44.107,44.107,0,0,1,1048.107,487.4Zm.319.268a38.62,38.62,0,0,0-8.311,17.589,31.9,31.9,0,0,0-.457,4.83,21.165,21.165,0,0,0,.159,2.377l.16,1.178.263,1.163a29.148,29.148,0,0,0,3.783,8.73,64.1,64.1,0,0,0,12.826,14.284,81.316,81.316,0,0,0,16.022,10.673,55.172,55.172,0,0,0,8.8,3.569,30.172,30.172,0,0,0,9.129,1.3,35.515,35.515,0,0,0,17.857-4.928,39.6,39.6,0,0,0,7.509-5.709l1.659-1.7,1.559-1.794q1.623-1.962,3.344-3.793c4.556-4.9,9.421-9.356,13.773-14.246a58.036,58.036,0,0,0,5.926-7.728,48.444,48.444,0,0,0,2.276-4.284,40.577,40.577,0,0,0,1.666-4.565,32.218,32.218,0,0,0,1.37-9.587,29.98,29.98,0,0,0-1.713-9.523,33.13,33.13,0,0,0-4.553-8.529,39.721,39.721,0,0,0-6.685-6.957,45.05,45.05,0,0,0-8.058-5.251,48.619,48.619,0,0,0-8.946-3.409,46.614,46.614,0,0,0-18.85-1.366,82.85,82.85,0,0,0-18.648,5.126A81.8,81.8,0,0,0,1048.426,487.67Z" transform="translate(-843.39 -432.503)" fill="#5cc398"/>
    <g id="Grupo_216" data-name="Grupo 216" transform="translate(-843.39 -432.503)">
      <path id="Trazado_215" data-name="Trazado 215" d="M944.281,523.776l-.032-.5c-.069-1.071-.138-2.14-.188-3.2-.044-.94-.065-1.911-.085-2.85a48.069,48.069,0,0,0-.485-6.931.426.426,0,0,0-.428-.343.385.385,0,0,0-.393.313,32.6,32.6,0,0,0-.239,7.835c.031.648.063,1.291.085,1.926l.044,1.374a71.47,71.47,0,0,0,.82,10.359.208.208,0,0,0,.014.065A63.6,63.6,0,0,0,942.6,544.5c.048,2.076-.726.068-.726.068-4.392-11.409-4.564-26.651-.358-41.569a63.475,63.475,0,0,1,3.291-8.454c.684-1.535,1.391-3.123,2.014-4.711,2.148-5.482,6.076-14.224,7.47-14.342.04,0,.128-.013.228.155,4.157,6.913,7.4,22.1,2.861,42.143-1.035,4.566-3.857,8.119-6.587,11.555-3.176,4-6.175,7.775-6.594,12.995a.756.756,0,0,0,.658.813.742.742,0,0,0,.878-.528c1.134-4.105,3.791-7.375,6.36-10.537a45.24,45.24,0,0,0,4.962-6.97c2.7-5.04,3.486-11.13,4.059-16.936.65-6.666,1.359-23.492-6.1-35.757a1.161,1.161,0,0,0-.822-.546.972.972,0,0,0-.812.264c-3.246,3.086-4.837,7.312-6.376,11.4l-.36.954c-.792,2.08-1.641,4.18-2.462,6.21a136.391,136.391,0,0,0-5.377,14.949,66.2,66.2,0,0,0-1.628,7.848,74.459,74.459,0,0,0-.765,8.592,68.109,68.109,0,0,0,.282,8.8,52.956,52.956,0,0,0,1.51,8.486,37.178,37.178,0,0,0,2.921,7.636,32.5,32.5,0,0,1,1.562,3.018,18.051,18.051,0,0,1,.934,3.839q.354,2.129.8,4.239c.756,3.6.4,7.281.051,10.846a27.424,27.424,0,0,0-.261,3.8c.013.3.089,1.854-.534,1.137a5.815,5.815,0,0,1-.893-1.533c-.345-.8-.615-1.676-.958-2.39q-1.158-2.419-2.36-4.818-2.2-4.394-4.589-8.693c-.405-.728-.8-1.466-1.233-2.18l-.051-.086a1.078,1.078,0,0,0,.309-1.3c-2.293-5.238-3.514-11.149-4.7-16.865-.688-3.33-1.4-6.771-2.312-10.013-2.147-7.621-4.366-16.65-4.781-26.347a.97.97,0,0,0,.747.532.8.8,0,0,0,.933-.626l.45-2.1c4.509-21.1,9.62-45.021-1.536-64.466a1.009,1.009,0,0,0-.686-.5,1.08,1.08,0,0,0-.861.225c-7.642,6.024-8.466,19.663-9.068,29.623-.082,1.344-.158,2.619-.247,3.8a87.775,87.775,0,0,0,9.775,47.14.335.335,0,0,0,.114.121c.945,4.769,2.288,9.527,3.588,14.129q.347,1.227.689,2.449c.876,3.127,1.529,6.374,2.16,9.515.347,1.726.659,3.47,1.083,5.179.056.225.795,2.227.416,2.395s-1.324-1.7-1.487-1.993c-4.466-7.339-9.144-14.616-13.694-21.7l-1.926-3a.669.669,0,0,0,.024-.148.793.793,0,0,0,.471-.075.821.821,0,0,0,.388-1.063q-.619-1.635-1.255-3.327c-4.471-11.883-9.539-25.352-16.967-36.587-8.634-13.059-18.753-20.416-30.936-22.493a1.045,1.045,0,0,0-1.077.72c-2.884,8.587,4.6,19.118,9.545,26.087.4.568.791,1.114,1.155,1.634a163.838,163.838,0,0,0,12.528,16.033c3.806,4.194,8.482,7.324,13.006,10.351a87.971,87.971,0,0,1,10.166,7.54l1.534,2.467c6.845,11.011,13.924,22.4,20.589,33.753,7.782,13.259,13.849,27.758,19.717,41.78,1.06,2.532,2.144,5.123,3.238,7.707,1.56,3.2-.886.492-.886.492-2.568-2.475-5.368-4.757-8.1-6.982-1.393-1.136-2.834-2.31-4.2-3.475-4.609-3.934-9.538-8.2-14.332-12.755-5.75-6.98-9.969-15.322-14.051-23.391-5.573-11.019-11.337-22.414-21.1-30.57a.583.583,0,0,0-.822.063.672.672,0,0,0-.042.923c7.267,7.882,12.567,17.741,17.692,27.277,1.092,2.03,2.207,4.1,3.343,6.163,2.007,3.194-.886.368-.886.368-15.443-14.562-25.93-30.313-31.2-46.871-.072-.226-.063-.357-.022-.386.3-.2,1.991.1,11.463,7.316.3.231.495.376.626.464,5.673,4.92,10.137,11.017,13.392,15.781,4.55,6.663,7.3,13.79,10.215,21.334.933,2.418,1.9,4.918,2.919,7.373a.555.555,0,0,0,.69.327.65.65,0,0,0,.476-.713c-1.9-12.208-8.227-25.006-18.8-38.038A122.137,122.137,0,0,0,890.3,518.419c-6.257-5.613-10.48-7.87-12.552-6.689a.976.976,0,0,0-.5,1.068,97.459,97.459,0,0,0,15.039,31.734A90.039,90.039,0,0,0,906.052,559.4a45.442,45.442,0,0,1,3.677,3.743c1.751,1.927,3.719,3.86,5.07,5.4,1.5,2.009-.327.528-.327.528a52.778,52.778,0,0,0-7.563-5.828h.026c-2-1.344-6.082-4.738-6.081-4.732-7.6-7.577-16.267-14.539-27.441-17.248-7.305-1.764-20.883-3.666-29.739,3.406a.814.814,0,0,0-.174,1.017c6.119,8.828,16.647,11.892,25.936,14.6,1.375.4,2.749.813,4.126,1.225,4.493,1.348,9.14,2.742,13.8,3.695a45.571,45.571,0,0,0,10.2.554,45.451,45.451,0,0,1,9.879.515,50.771,50.771,0,0,1,6.925,5.464c2.821,2.64,5.527,5.44,8.144,8.148,1.856,1.92,3.7,3.849,5.6,5.728.95.939,1.911,1.866,2.893,2.772.937.865,1.959,1.657,2.864,2.553.31.307.658.532.994.806q.571.481,1.145.961a22.246,22.246,0,0,1,1.981,1.533.251.251,0,0,1,.081.134.185.185,0,0,1-.163.187.531.531,0,0,1-.268-.046q-.659-.232-1.319-.446c-1.8-.581-3.66-.943-5.437-1.608a51.712,51.712,0,0,1-6.568-3.407,60.092,60.092,0,0,0-6.666-3.117,64.405,64.405,0,0,0-14.463-3.853,61.13,61.13,0,0,0-7.06-.611c-12.486-.352-23.676,3.348-31.528,10.4a.816.816,0,0,0-.277.749,1,1,0,0,0,.58.734,81.511,81.511,0,0,0,31.3,7.85,59.237,59.237,0,0,0,14.992-1.327A110.8,110.8,0,0,0,925,595.75q1.947-.693,3.883-1.412a3.6,3.6,0,0,1,2.166.12q.933.171,1.859.374,1.8.395,3.579.913t3.522,1.158a9.264,9.264,0,0,1,2.941,1.433c.927.78,1.87,1.545,2.8,2.325,1.957,1.644,3.883,3.327,5.737,5.088a66.127,66.127,0,0,1,6.861,7.482c5.476,12.4,12.425,26.846,22.442,39.964a.96.96,0,0,0,.772.414,1.056,1.056,0,0,0,.631-.223,1.194,1.194,0,0,0,.267-1.67,182.054,182.054,0,0,1-15.982-26.667,10.99,10.99,0,0,1-.612-4.044,28.929,28.929,0,0,1,.2-4.577c.182-1.571.459-3.129.789-4.675a30.808,30.808,0,0,1,.943-4.174,6.24,6.24,0,0,1,2.685-3.228,11.76,11.76,0,0,1,2.121-1.029c2.517-.939,5.1-1.687,7.683-2.434,6.123-1.774,12.455-3.608,17.519-7.717a.781.781,0,0,0,.282-.553.9.9,0,0,0-.217-.668c-3.249-3.54-8.343-7.916-15.023-5.07a31.979,31.979,0,0,0-6.946,4.03,27.777,27.777,0,0,0-3.005,2.669c-.247.254-1.438,2.02-1.348.811a15.2,15.2,0,0,1,.088-1.6c.275-1.19.661-2.572.994-3.7q.689-2.34,1.4-4.674c1-3.292,2.211-5.943,3.24-9.226q.494-1.579.992-3.157a.473.473,0,0,0-.284-.574.435.435,0,0,0-.566.2,91.447,91.447,0,0,0-7.093,19.12,13.069,13.069,0,0,0-.341,1.618c-.042.3-.151.99-.511.469-.673-.975-.539-2.839-.56-3.981a26.609,26.609,0,0,1,.3-4.422,36.534,36.534,0,0,1,2.557-8.848,47.883,47.883,0,0,1,7.778-12.489l.358-.418c1.033-1.209,2.1-2.454,2.884-2.285.482.108.9.771,1.232,1.973.758,2.725.715,6.123-.133,10.39-.667,3.353-2.956,5.615-5.17,7.8-2.033,2.009-4.134,4.087-5.028,7.014a.614.614,0,0,0,.327.745.621.621,0,0,0,.8-.211,41.216,41.216,0,0,1,4.41-5.135c2.768-2.884,5.383-5.607,6.493-9.662,1.154-4.23,1.389-10.456-1.413-15.245a1.077,1.077,0,0,0-.665-.494.786.786,0,0,0-.629.1c-5.122,3.336-10.137,9.885-13.087,17.088-3.3,8.055-3.616,15.542-.9,21.1-.619,2.545-1.214,5.113-1.789,7.6-.582,2.514-1.177,5.026-1.715,7.55a29.146,29.146,0,0,0-1.059,7.629c.02.344.2,1.519-.383,1.218-.379-.2-.648-1.083-.809-1.45-.059-.135-.114-.271-.171-.407-3.494-7.466-6.767-15.139-9.947-22.591-2.17-5.09-4.416-10.353-6.7-15.488a30.625,30.625,0,0,1,.4-7.2,35.618,35.618,0,0,0,.491-5.412,12.13,12.13,0,0,1,.444-3.951c.335-1.035.721-2.448,1.694-3.063a48.321,48.321,0,0,1,7.835-3.774,40.291,40.291,0,0,0,8.814-4.421,126.652,126.652,0,0,0,14.6-12.7c5.514-5.574,11.382-14.61,8.031-26.005a1.09,1.09,0,0,0-.63-.69.82.82,0,0,0-.736.069c-2.357,1.477-4.9,2.863-7.587,4.331-6.813,3.718-13.857,7.563-18.475,13.246-3.536,4.349-5.4,9.511-7.2,14.5-1.546,4.285-3.156,8.7-5.811,12.61-.425.572-1.314,1.637-1.981.784-.728-.931-.662-2.591-.877-3.716-.316-1.662-.622-3.327-.877-5a47.808,47.808,0,0,1-.608-10.263c.4-6.257,1.834-12.576,3.221-18.686.548-2.415,1.115-4.912,1.6-7.356a36.137,36.137,0,0,0,.48-7.429c-.023-3.887-.044-7.56,1.975-11.373a.358.358,0,0,0-.1-.457.335.335,0,0,0-.442.021c-2.9,2.708-2.969,6.59-3.041,10.345-.009.473-.018.944-.032,1.411a99.034,99.034,0,0,1-2.521,17.128q-.093.447-.187.9C944.34,526.563,944.281,523.776,944.281,523.776Zm25.957,75.967q.413-.747.876-1.463a25.112,25.112,0,0,1,2.1-2.779,26.026,26.026,0,0,1,5.207-4.6,19.354,19.354,0,0,1,4.806-2.369,11.085,11.085,0,0,1,9.042.665c1.417.8,3.023,1.712,3.062,2.784.026.669-.565,1.41-1.753,2.2a30.71,30.71,0,0,1-8.609,3.471l-.426.124c-1.006.294-2.013.571-3.019.847a69.124,69.124,0,0,0-9.573,3.239c-1.6.7-.223-.447-.223-.447a43.288,43.288,0,0,1,12.99-7.168,46.4,46.4,0,0,0,4.73-1.971.5.5,0,0,0,.279-.531.566.566,0,0,0-.467-.46,6.016,6.016,0,0,0-1.032-.085A14.3,14.3,0,0,0,982,593.071c-2.323,1.169-4.471,2.629-6.675,4-1.117.7-2.218,1.417-3.262,2.218a15.21,15.21,0,0,0-1.469,1.225c-.116.115-.791,1-.851.49A2.445,2.445,0,0,1,970.238,599.743Zm-19.081-42.878a2.078,2.078,0,0,1,.613-.647c.058-.049.113-.1.163-.147.829-.823,1.548-1.764,2.357-2.61,1.205-1.264,2.461-2.479,3.716-3.693,1.276-1.233,2.482-2.4,3.6-3.585,1.179-1.248,2.406-2.509,3.593-3.728,5.52-5.672,11.229-11.538,14.814-18.731a.52.52,0,0,0-.2-.683.476.476,0,0,0-.248-.07.5.5,0,0,0-.41.228,165.986,165.986,0,0,1-18.216,21.912c-.149.151-.7.744-.7.215a2.186,2.186,0,0,1,.186-.777c.08-.2.169-.4.232-.591a33.81,33.81,0,0,0,1.152-4.064c.18-.693.354-1.373.536-2.024a.429.429,0,0,0-.285-.533.422.422,0,0,0-.542.266c-.51,1.383-1.084,2.776-1.639,4.123-.2.483-.4.964-.593,1.447-.359.88-.788,1.758-1.205,2.609-.515,1.051-.97,2.133-1.555,3.148a11.96,11.96,0,0,1-2.389,2.818q-.383.355-.751.711c-1.208,1.137-.442-.38-.442-.38a78.14,78.14,0,0,0,3.132-8.318c.312-.933.626-1.872.954-2.815,3.055-8.789,9.886-13.607,17.837-18.563.792-.493,1.675-1.111,2.611-1.765,3.1-2.17,6.952-4.87,8.981-3.827,1.017.525,1.544,2,1.563,4.384.09,11.048-11.671,20.161-17.99,25.058l-.414.32c-5.637,4.372-10.587,7.972-17.617,10.346C951.826,556.958,950.958,557.308,951.157,556.865ZM924.2,458.8a.468.468,0,0,0-.522.435c-.19,1.912-.356,3.854-.515,5.733-.03.348-.06.7-.09,1.051-.229,2.68-.409-.006-.409-.006-.273-4.833-.728-9.664-1.171-14.383q-.311-3.277-.6-6.549a.67.67,0,0,0-.759-.592.683.683,0,0,0-.685.7c.189,3.925.468,7.91.737,11.762.468,6.71.953,13.648.981,20.5.014,3.762-.193,7.564-.393,11.242-.25,4.578-.4,9.288-.338,14,.051,3.974-1.335.164-1.335.164a97.435,97.435,0,0,1-5.456-28.773c-.231-7.107-.137-24.9,5.7-36.666.512-1.03,1.019-1.55,1.511-1.55a.851.851,0,0,1,.1.006c1.673.242,3.473,6.326,4.515,12.249a104.137,104.137,0,0,1,1.133,11.211c.1,1.5.2,3.048.324,4.565.585,7.117-.935,13.958-2.407,20.574-.695,3.125-1.4,6.318-1.9,9.565s-.553.027-.553.027c.063-2.971.241-5.946.416-8.852.145-2.422.295-4.927.369-7.342,1.32-4.6,1.466-9.39,1.608-14.024.044-1.49.092-3.029.177-4.547A.459.459,0,0,0,924.2,458.8Zm-18.175,51.352q-.466-.74-.933-1.486c-1.316-2.1-2.714-4.151-4.161-6.165a59.61,59.61,0,0,1-4.112-5.612c-1-1.8-1.708-3.8-2.575-5.675-2.033-4.391-4.227-8.707-6.485-12.986l-.471-.889a.494.494,0,0,0-.678-.212.5.5,0,0,0-.231.675c1.19,2.49,2.308,5.092,3.39,7.607.489,1.137.909,2.311,1.468,3.417a5.181,5.181,0,0,1,.826,1.7,3.594,3.594,0,0,1-1.4-1.209l-.875-1.072c-5.689-6.965-11.57-14.168-16.252-21.988a.489.489,0,0,0-.672-.176.461.461,0,0,0-.182.633c4.181,7.785,9.914,14.738,15.46,21.461,3.2,3.879,6.429,7.792,9.39,11.882,1.4,1.93,2.732,3.9,3.976,5.923q1.808,2.941,3.631,5.88c.311.5,1.376,2.08.128,1.554a6.648,6.648,0,0,1-1.218-.69c-.576-.4-1.114-.863-1.661-1.289-.909-.706-1.9-1.3-2.869-1.924l-.969-.626c-7.5-4.875-13.27-11.876-16.959-16.719-.648-.85-1.324-1.725-2.019-2.623-6.42-8.3-14.409-18.639-14.923-28.958a.939.939,0,0,1,.5-1.012c1.822-.852,5.006,1.029,6.571,1.782a87.41,87.41,0,0,1,8.636,4.871c7.426,4.673,11.846,12.134,15.946,19.678a147.7,147.7,0,0,1,6.8,15.172c1.205,2.98,2.428,6.009,3.767,8.988C908.3,513.362,906.026,510.148,906.026,510.148ZM899.991,563.5c-1.759-.1-3.539-.12-5.288-.142-4.081-.05-8.3-.1-12.148-1.11l-1.963-.512c-9.847-2.565-20.029-5.216-28.745-10.2-3.384-1.935-5.017-3.832-4.723-5.485.337-1.9,3.282-3.495,7.877-4.272a32.52,32.52,0,0,1,5.453-.436,62.2,62.2,0,0,1,14.681,2.086c8.553,2.1,15.12,7.635,21.27,13.471,3.317,2.693-.283,1.032-.283,1.032-2.532-.88-5.041-1.533-7.44-2.131-1.068-.777-2.206-1.49-3.3-2.179q-.59-.369-1.171-.739c-3.091-1.986-5.861-3.905-8.465-5.864a.413.413,0,0,0-.574.061.435.435,0,0,0,0,.6,50.334,50.334,0,0,0,5.542,4.875c3.834,2.37-.52,1.009-.52,1.009a35,35,0,0,1-11.975-6.074.661.661,0,0,0-.941.118.7.7,0,0,0,0,.982c4.94,4.777,10.855,6.732,16.49,8.324a124.686,124.686,0,0,1,16.275,5.383S904.093,563.63,899.991,563.5Zm23.153,31.1q-1.251.352-2.471.7c-6.841,1.956-13.3,3.8-21.1,4.149-9.411.42-19.573-1.671-31.051-6.395-.589-.242-.88-.537-.863-.876.117-2.447,13.174-7.239,14.319-7.588a36.456,36.456,0,0,1,9.65-1.129c2.038,0,4.061.1,6.039.229,8.525.536,15.914,3.41,23.736,6.454l.427.166s4.719,1.462,0,1.509c-2.556-.045-5.2.039-7.97.2-1.867.106-3.727.234-5.584.362a151.106,151.106,0,0,1-17.082.525c-1.936-.088-3.8-.322-5.6-.549-3.8-.477-7.4-.93-11.433-.067a.788.788,0,0,0,.322,1.542c5.644-1.2,11.635-.593,17.427-.011a103.1,103.1,0,0,0,10.341.69s2.7.055.44.7a27.141,27.141,0,0,1-7.59,1.366l-.214,0a.459.459,0,0,0-.462.461.43.43,0,0,0,.424.451,28.126,28.126,0,0,0,14.788-3.484,93.59,93.59,0,0,1,13.477-.418S926.8,593.565,923.144,594.607Z" fill="#0d927d"/>
      <path id="Trazado_216" data-name="Trazado 216" d="M872.333,472.118a.348.348,0,0,0-.133.468v0c5.023,9.68,12.865,17.568,19.137,23.36a.462.462,0,0,0,.312.123.455.455,0,0,0,.322-.134.429.429,0,0,0,.02-.6c-1.556-1.781-3.154-3.559-4.7-5.278-5.012-5.58-10.2-11.349-14.456-17.821A.377.377,0,0,0,872.333,472.118Z" fill="#0d927d"/>
      <path id="Trazado_217" data-name="Trazado 217" d="M916.886,456.508a.412.412,0,0,0-.393.415h0c.158,9.042,1.013,18.066,1.829,25.7a.425.425,0,0,0,.44.374h.028a.443.443,0,0,0,.439-.435,164.036,164.036,0,0,0-1.881-25.713A.4.4,0,0,0,916.886,456.508Z" fill="#0d927d"/>
      <path id="Trazado_218" data-name="Trazado 218" d="M952.657,507.524a.464.464,0,0,0,.47-.417c.741-5.524,1.3-11.44,1.77-18.617a.467.467,0,0,0-.449-.512.482.482,0,0,0-.535.449c-.186,2.35-.474,4.739-.753,7.05a106.129,106.129,0,0,0-.968,11.572.456.456,0,0,0,.432.474Z" fill="#0d927d"/>
      <path id="Trazado_219" data-name="Trazado 219" d="M973.563,525.734h0c-.685.854-1.4,1.7-2.109,2.551-2.557,3.053-5.2,6.21-6.876,9.874a.406.406,0,0,0,.177.536.514.514,0,0,0,.255.068.446.446,0,0,0,.373-.191c2.684-3.782,5.659-7.773,9.093-12.2a.494.494,0,0,0-.084-.72A.586.586,0,0,0,973.563,525.734Z" fill="#0d927d"/>
      <path id="Trazado_220" data-name="Trazado 220" d="M977.763,580a.482.482,0,0,0,.4-.213,22.557,22.557,0,0,0,3.44-14.142.409.409,0,0,0-.419-.384h0a.481.481,0,0,0-.485.416,49.458,49.458,0,0,1-1.162,7.239,36.565,36.565,0,0,1-1.363,4.064c-.295.782-.6,1.588-.87,2.395a.462.462,0,0,0,.24.573A.5.5,0,0,0,977.763,580Z" fill="#0d927d"/>
      <path id="Trazado_221" data-name="Trazado 221" d="M875.324,556.266c-2.3-1.2-4.593-2.593-6.812-3.943a67.891,67.891,0,0,0-12.339-6.4h0a.446.446,0,0,0-.56.272.414.414,0,0,0,.194.547A69.3,69.3,0,0,1,862.786,551c3.787,2.522,7.7,5.131,12.091,6.278a.533.533,0,0,0,.14.018.608.608,0,0,0,.548-.391A.5.5,0,0,0,875.324,556.266Z" fill="#0d927d"/>
      <path id="Trazado_222" data-name="Trazado 222" d="M879.436,588.707h0a26.424,26.424,0,0,0,5.653.549c2.062,0,4.118-.167,6.136-.331a58.087,58.087,0,0,1,8.033-.28.471.471,0,0,0,.469-.409.414.414,0,0,0-.328-.476,33.4,33.4,0,0,0-10.026-.037,34.064,34.064,0,0,1-9.672.019.525.525,0,0,0-.62.422A.447.447,0,0,0,879.436,588.707Z" fill="#0d927d"/>
      <path id="Trazado_223" data-name="Trazado 223" d="M885.53,523.943a.484.484,0,0,0-.153.686h0c.76,1.2,1.512,2.413,2.267,3.63a114.425,114.425,0,0,0,9.524,13.8.476.476,0,0,0,.37.173.55.55,0,0,0,.32-.108.481.481,0,0,0,.142-.654c-2.2-3.588-4.647-7.114-7.013-10.523-1.55-2.235-3.154-4.545-4.67-6.847A.568.568,0,0,0,885.53,523.943Z" fill="#0d927d"/>
    </g>
  </g>
  <g id="Componente_45_3" data-name="Componente 45 – 3" transform="translate(1178)">
    <path id="Trazado_227" data-name="Trazado 227" d="M377.874,0c5,36.124,44.921,79.432,73.2,88.536,24.588,7.916,50.871,1.7,70.63-14.3,16.8-13.6,42.771-27.121,56.469-43.568,8.252-9.908,13.189-20.3,15.373-30.672Z" transform="translate(-377.874)" fill="#f2e0df"/>
  </g>
  <g id="Componente_46_8" data-name="Componente 46 – 8" transform="translate(377.237 475) rotate(-90)">
    <path id="Trazado_228" data-name="Trazado 228" d="M99.869,482.356c-.316-14.2-2.732-28.523-8.788-41.382-8.583-18.223-23.817-32.345-38.688-45.984-12.381-11.357-26.481-23.413-43.319-23.36A34.932,34.932,0,0,0,0,372.878V621.917C56.145,615.573,101.142,539.634,99.869,482.356Z" transform="translate(0 -371.629)" fill="#fff"/>
  </g>
</svg>
