<svg id="banner-bottom-mobile" xmlns="http://www.w3.org/2000/svg" width="375.177" height="366" viewBox="0 0 375.177 366">
  <rect id="Rectángulo_181" data-name="Rectángulo 181" width="375" height="366" fill="rgba(235,204,201,0.2)"/>
  <g id="Grupo_244" data-name="Grupo 244" transform="translate(11 -2108.766)">
    <path id="Trazado_212" data-name="Trazado 212" d="M1007.238,532.171q-1.335-2.7-2.712-5.37c-4.291-8.37-10.122-19.872-19.427-23.309-9.805-3.622-21.584-3.332-31.487-.355a102.525,102.525,0,0,0-15.8,6.721c-7.389,3.659-14.806,7.4-21.317,12.462-6.574,5.108-12.075,11.442-17.531,17.732-4.332,4.995-8.73,10.092-11.361,16.158a61.652,61.652,0,0,0-3.557,13.016,122.609,122.609,0,0,0-1.9,12.5h125.084Z" transform="translate(-643.431 1892.644)" fill="#fff"/>
    <path id="Trazado_213" data-name="Trazado 213" d="M913.457,443.963c6.665-5.717,14.908-10.942,23.605-9.736,11.591,1.607,18.614,13.78,21.349,25.157,2.311,9.612,2.729,20.222-1.959,28.926-3.729,6.924-10.287,11.894-17.157,15.722-8.2,4.569-17.384,7.873-26.762,7.534s-18.938-4.812-23.709-12.893C876.568,477.917,899.037,456.331,913.457,443.963Z" transform="translate(-645.299 1932.343)" fill="#f2e0df"/>
    <path id="Trazado_214" data-name="Trazado 214" d="M1042.16,468.648a37.863,37.863,0,0,1,2.76-2.939c.478-.473.981-.921,1.483-1.37.517-.43,1.019-.881,1.553-1.294,1.048-.851,2.155-1.628,3.283-2.379a36.921,36.921,0,0,1,3.538-2.019,28.068,28.068,0,0,1,3.779-1.579c.646-.232,1.31-.406,1.972-.593.333-.088.672-.147,1.009-.221s.673-.145,1.022-.189a17.847,17.847,0,0,1,8.264.677,19.153,19.153,0,0,1,7.11,4.149,16.924,16.924,0,0,1,2.663,3.133,15.11,15.11,0,0,1,1.8,3.68,13.52,13.52,0,0,1,.69,4.029,14.718,14.718,0,0,1-.518,4.053,17.542,17.542,0,0,1-1.523,3.8,24.413,24.413,0,0,1-2.324,3.362c-1.695,2.118-3.556,4.073-5.282,6.083-.431.5-.842,1.015-1.246,1.528l-.662.812-.71.772a17.038,17.038,0,0,1-3.284,2.618,16.079,16.079,0,0,1-8.036,2.4l-.533.01c-.177,0-.355-.015-.532-.022l-.533-.026c-.179-.015-.361-.043-.541-.064a13.792,13.792,0,0,1-2.094-.458,22.723,22.723,0,0,1-3.876-1.568,31.946,31.946,0,0,1-3.535-2.144,30.111,30.111,0,0,1-3.223-2.57,25.817,25.817,0,0,1-2.832-3,19.96,19.96,0,0,1-2.264-3.467,12.735,12.735,0,0,1-1.324-3.939l-.071-.518-.027-.524a9.05,9.05,0,0,1,.019-1.045,13.643,13.643,0,0,1,.335-2.025,16.791,16.791,0,0,1,1.449-3.791A17.887,17.887,0,0,1,1042.16,468.648Zm.129.109a15.666,15.666,0,0,0-3.371,7.134,12.93,12.93,0,0,0-.185,1.959,8.519,8.519,0,0,0,.065.964l.065.478.107.472a11.823,11.823,0,0,0,1.534,3.541,26,26,0,0,0,5.2,5.793,32.976,32.976,0,0,0,6.5,4.329,22.384,22.384,0,0,0,3.57,1.448,12.235,12.235,0,0,0,3.7.528,14.4,14.4,0,0,0,7.243-2,16.064,16.064,0,0,0,3.046-2.316l.673-.688.632-.728q.658-.8,1.356-1.538c1.848-1.989,3.821-3.795,5.586-5.778a23.53,23.53,0,0,0,2.4-3.134,19.662,19.662,0,0,0,.923-1.737,16.464,16.464,0,0,0,.676-1.852,13.065,13.065,0,0,0,.556-3.888,12.159,12.159,0,0,0-.695-3.863,13.437,13.437,0,0,0-1.847-3.459,16.117,16.117,0,0,0-2.711-2.822,18.279,18.279,0,0,0-3.268-2.13,19.726,19.726,0,0,0-3.629-1.383,18.9,18.9,0,0,0-7.646-.554,33.6,33.6,0,0,0-7.563,2.079A33.176,33.176,0,0,0,1042.289,468.757Z" transform="translate(-736.127 1919.385)" fill="#5cc398"/>
    <g id="Grupo_216" data-name="Grupo 216" transform="translate(223 2365.766)">
      <path id="Trazado_215" data-name="Trazado 215" d="M884.311,469.523l-.013-.2c-.028-.434-.056-.868-.076-1.3-.018-.381-.026-.775-.034-1.156a19.5,19.5,0,0,0-.2-2.811.173.173,0,0,0-.174-.139.156.156,0,0,0-.159.127,13.223,13.223,0,0,0-.1,3.178c.013.263.026.524.034.781l.018.557a29.01,29.01,0,0,0,.333,4.2.085.085,0,0,0,.006.026,25.79,25.79,0,0,0-.321,5.146c.019.842-.294.028-.294.028-1.781-4.627-1.851-10.809-.145-16.86a25.751,25.751,0,0,1,1.335-3.429c.278-.623.564-1.267.817-1.911.871-2.223,2.464-5.769,3.03-5.817.016,0,.052-.005.093.063,1.686,2.8,3,8.963,1.16,17.093a11.922,11.922,0,0,1-2.672,4.687c-1.288,1.622-2.5,3.154-2.674,5.271a.306.306,0,0,0,.267.33.3.3,0,0,0,.356-.214,12.065,12.065,0,0,1,2.58-4.274,13.851,13.851,0,0,0,3.659-9.7c.264-2.7.551-9.528-2.474-14.5a.471.471,0,0,0-.333-.221.394.394,0,0,0-.329.107,11.81,11.81,0,0,0-2.586,4.623l-.146.387c-.321.844-.666,1.7-1,2.519a55.315,55.315,0,0,0-2.181,6.063,26.843,26.843,0,0,0-.66,3.183,30.223,30.223,0,0,0-.31,3.485,27.612,27.612,0,0,0,.114,3.571,21.488,21.488,0,0,0,.612,3.442,15.082,15.082,0,0,0,1.185,3.1,13.24,13.24,0,0,1,.633,1.224,7.323,7.323,0,0,1,.379,1.557q.143.863.323,1.719a14.5,14.5,0,0,1,.021,4.4,11.125,11.125,0,0,0-.106,1.543c.005.123.036.752-.217.461a2.357,2.357,0,0,1-.362-.622c-.14-.326-.249-.68-.389-.969q-.47-.981-.957-1.954-.894-1.782-1.861-3.526c-.164-.3-.325-.595-.5-.884l-.021-.035a.437.437,0,0,0,.125-.526,34.641,34.641,0,0,1-1.9-6.84c-.279-1.351-.567-2.746-.938-4.061a46.779,46.779,0,0,1-1.939-10.686.394.394,0,0,0,.3.216.324.324,0,0,0,.378-.254l.182-.853c1.829-8.559,3.9-18.26-.623-26.147a.409.409,0,0,0-.278-.2.438.438,0,0,0-.349.091c-3.1,2.443-3.434,7.975-3.678,12.015-.033.545-.064,1.062-.1,1.54a35.6,35.6,0,0,0,3.965,19.12.137.137,0,0,0,.046.049c.383,1.934.928,3.864,1.455,5.731q.14.5.279.993c.355,1.268.62,2.585.876,3.859.141.7.267,1.407.439,2.1.023.091.322.9.169.971s-.537-.688-.6-.808c-1.811-2.977-3.709-5.928-5.554-8.8l-.781-1.216a.278.278,0,0,0,.01-.06.322.322,0,0,0,.191-.03.333.333,0,0,0,.157-.431q-.251-.663-.509-1.349c-1.813-4.82-3.869-10.283-6.882-14.84-3.5-5.3-7.606-8.281-12.547-9.123a.424.424,0,0,0-.437.292c-1.17,3.483,1.864,7.754,3.871,10.581.163.23.321.452.469.663a66.436,66.436,0,0,0,5.081,6.5,27.562,27.562,0,0,0,5.275,4.2,35.666,35.666,0,0,1,4.123,3.058l.622,1c2.776,4.466,5.648,9.084,8.351,13.69a140.473,140.473,0,0,1,8,16.946c.43,1.027.87,2.078,1.313,3.126.633,1.3-.359.2-.359.2-1.042-1-2.177-1.929-3.285-2.832-.565-.461-1.149-.937-1.7-1.409-1.869-1.6-3.869-3.327-5.813-5.173a50.719,50.719,0,0,1-5.7-9.487c-2.26-4.469-4.6-9.091-8.556-12.4a.237.237,0,0,0-.333.026.273.273,0,0,0-.017.374c2.947,3.2,5.1,7.2,7.176,11.063.443.823.9,1.665,1.356,2.5.814,1.3-.359.149-.359.149-6.264-5.906-10.517-12.295-12.653-19.011-.029-.092-.026-.145-.009-.157.121-.082.808.04,4.649,2.967.124.094.2.152.254.188a33.249,33.249,0,0,1,5.432,6.4,40.875,40.875,0,0,1,4.143,8.653c.379.981.77,1.995,1.184,2.99a.225.225,0,0,0,.28.133.263.263,0,0,0,.193-.289c-.771-4.952-3.337-10.142-7.626-15.428a49.551,49.551,0,0,0-4.369-4.488c-2.538-2.277-4.251-3.192-5.091-2.713a.4.4,0,0,0-.2.433,39.526,39.526,0,0,0,6.1,12.871,36.523,36.523,0,0,0,5.582,6.029,18.413,18.413,0,0,1,1.491,1.518c.71.782,1.508,1.566,2.056,2.191.608.815-.133.214-.133.214a21.406,21.406,0,0,0-3.068-2.364h.011c-.812-.545-2.467-1.922-2.466-1.919-3.085-3.073-6.6-5.9-11.13-7C852.6,475.9,847.1,475.127,843.5,478a.33.33,0,0,0-.071.412c2.482,3.581,6.752,4.823,10.519,5.92.558.162,1.115.33,1.674.5,1.822.547,3.707,1.112,5.6,1.5a18.486,18.486,0,0,0,4.135.225,18.434,18.434,0,0,1,4.007.209,20.6,20.6,0,0,1,2.809,2.216c1.144,1.071,2.242,2.206,3.3,3.3.753.779,1.5,1.561,2.271,2.323.385.381.775.757,1.173,1.124.38.351.794.672,1.162,1.035.126.125.267.216.4.327q.232.2.464.39a9,9,0,0,1,.8.622.1.1,0,0,1,.033.054.075.075,0,0,1-.066.076.216.216,0,0,1-.109-.019q-.267-.094-.535-.181c-.731-.236-1.484-.383-2.205-.652A20.974,20.974,0,0,1,876.208,496a24.358,24.358,0,0,0-2.7-1.264,26.118,26.118,0,0,0-5.866-1.563,24.77,24.77,0,0,0-2.863-.248,18.182,18.182,0,0,0-12.788,4.217.331.331,0,0,0-.112.3.4.4,0,0,0,.235.3,33.061,33.061,0,0,0,12.7,3.184,24.023,24.023,0,0,0,6.081-.538,44.934,44.934,0,0,0,5.6-1.67q.79-.281,1.575-.573a1.458,1.458,0,0,1,.878.049q.378.069.754.152.732.16,1.452.37t1.428.47a3.758,3.758,0,0,1,1.193.581c.376.316.758.627,1.135.943.794.667,1.575,1.349,2.327,2.064a26.814,26.814,0,0,1,2.783,3.035,78.829,78.829,0,0,0,9.1,16.209.389.389,0,0,0,.313.168.428.428,0,0,0,.256-.091.484.484,0,0,0,.108-.677,73.836,73.836,0,0,1-6.482-10.816,4.458,4.458,0,0,1-.248-1.64,11.734,11.734,0,0,1,.08-1.856c.074-.637.186-1.269.32-1.9a12.5,12.5,0,0,1,.383-1.693,2.531,2.531,0,0,1,1.089-1.309,4.769,4.769,0,0,1,.86-.417c1.021-.381,2.07-.684,3.116-.987,2.483-.72,5.052-1.463,7.106-3.13a.317.317,0,0,0,.114-.224.367.367,0,0,0-.088-.271c-1.318-1.436-3.384-3.211-6.093-2.056a12.97,12.97,0,0,0-2.817,1.635,11.266,11.266,0,0,0-1.219,1.083c-.1.1-.583.819-.547.329a6.11,6.11,0,0,1,.036-.651c.112-.483.268-1.043.4-1.5q.279-.949.566-1.9c.4-1.335.9-2.41,1.314-3.742q.2-.641.4-1.28a.192.192,0,0,0-.115-.233.177.177,0,0,0-.23.08,37.1,37.1,0,0,0-2.877,7.755,5.288,5.288,0,0,0-.138.656c-.017.123-.061.4-.207.19a3.316,3.316,0,0,1-.227-1.615,10.789,10.789,0,0,1,.121-1.794,14.821,14.821,0,0,1,1.037-3.589,19.421,19.421,0,0,1,3.155-5.065l.145-.17c.419-.49.851-1,1.17-.927.2.044.364.313.5.8a9.209,9.209,0,0,1-.054,4.214,6.277,6.277,0,0,1-2.1,3.165,7.006,7.006,0,0,0-2.039,2.845.255.255,0,0,0,.456.217,16.716,16.716,0,0,1,1.789-2.083,9.183,9.183,0,0,0,2.633-3.919,8.432,8.432,0,0,0-.573-6.183.437.437,0,0,0-.27-.2.319.319,0,0,0-.255.042,15.622,15.622,0,0,0-5.308,6.931c-1.338,3.267-1.467,6.3-.363,8.556-.251,1.032-.492,2.074-.726,3.082s-.477,2.039-.7,3.062a11.825,11.825,0,0,0-.43,3.094c.008.14.08.616-.155.494-.154-.08-.263-.439-.328-.588-.024-.055-.046-.11-.069-.165-1.417-3.028-2.745-6.14-4.034-9.163-.88-2.065-1.791-4.2-2.72-6.282a12.417,12.417,0,0,1,.164-2.92,14.439,14.439,0,0,0,.2-2.2,4.922,4.922,0,0,1,.18-1.6,2.233,2.233,0,0,1,.687-1.242,19.6,19.6,0,0,1,3.178-1.531,16.34,16.34,0,0,0,3.575-1.793,51.365,51.365,0,0,0,5.921-5.153c2.237-2.261,4.617-5.926,3.257-10.547a.442.442,0,0,0-.255-.28.333.333,0,0,0-.3.028c-.956.6-1.987,1.161-3.077,1.757-2.763,1.508-5.62,3.067-7.493,5.372a19.418,19.418,0,0,0-2.921,5.882,22.453,22.453,0,0,1-2.357,5.115c-.172.232-.533.664-.8.318a3.666,3.666,0,0,1-.356-1.507c-.128-.674-.252-1.349-.356-2.028a19.389,19.389,0,0,1-.247-4.163,48.8,48.8,0,0,1,1.306-7.579c.222-.979.452-1.992.651-2.983a14.657,14.657,0,0,0,.195-3.013,9.048,9.048,0,0,1,.8-4.613.145.145,0,0,0-.039-.185.136.136,0,0,0-.179.008c-1.175,1.1-1.2,2.673-1.233,4.2,0,.192-.008.383-.013.572a40.173,40.173,0,0,1-1.023,6.947q-.038.181-.076.365C884.335,470.653,884.311,469.523,884.311,469.523Zm10.528,30.812c.112-.2.23-.4.355-.593a10.162,10.162,0,0,1,.853-1.127,10.559,10.559,0,0,1,2.112-1.867,7.848,7.848,0,0,1,1.949-.961,4.5,4.5,0,0,1,3.667.27c.575.325,1.226.694,1.242,1.129.01.271-.229.572-.711.893a12.456,12.456,0,0,1-3.492,1.408l-.173.05c-.408.119-.817.232-1.225.344a28.039,28.039,0,0,0-3.883,1.314c-.651.286-.09-.181-.09-.181a17.557,17.557,0,0,1,5.269-2.907,18.793,18.793,0,0,0,1.919-.8.2.2,0,0,0,.113-.215.23.23,0,0,0-.189-.187,2.439,2.439,0,0,0-.419-.034,5.8,5.8,0,0,0-2.529.759c-.942.474-1.813,1.066-2.707,1.622-.453.282-.9.575-1.323.9a6.162,6.162,0,0,0-.6.5c-.047.047-.321.4-.345.2A.992.992,0,0,1,894.839,500.335ZM887.1,482.944a.845.845,0,0,1,.249-.262c.023-.02.046-.04.066-.06.336-.334.628-.715.956-1.059.489-.513,1-1.005,1.507-1.5s1.007-.973,1.461-1.454c.478-.506.976-1.018,1.457-1.512a31.516,31.516,0,0,0,6.008-7.6.211.211,0,0,0-.081-.277.192.192,0,0,0-.1-.028.2.2,0,0,0-.166.092,67.32,67.32,0,0,1-7.388,8.887c-.06.061-.285.3-.285.087a.884.884,0,0,1,.075-.315c.032-.083.069-.164.094-.24a13.733,13.733,0,0,0,.467-1.648c.073-.281.144-.557.217-.821a.174.174,0,0,0-.116-.216.171.171,0,0,0-.22.108c-.207.561-.44,1.126-.665,1.672-.081.2-.161.391-.241.587-.146.357-.32.713-.489,1.058-.209.426-.393.865-.631,1.277a4.849,4.849,0,0,1-.969,1.143c-.1.1-.205.192-.3.288-.49.461-.179-.154-.179-.154a31.7,31.7,0,0,0,1.27-3.374c.127-.378.254-.759.387-1.142,1.239-3.565,4.01-5.519,7.235-7.529.321-.2.679-.451,1.059-.716,1.257-.88,2.82-1.975,3.643-1.552.413.213.626.811.634,1.778.037,4.481-4.734,8.177-7.3,10.163l-.168.13a23.421,23.421,0,0,1-7.145,4.2C887.371,482.981,887.019,483.123,887.1,482.944Zm-10.933-39.776a.19.19,0,0,0-.212.176c-.077.776-.144,1.563-.209,2.325q-.018.212-.037.426c-.093,1.087-.166,0-.166,0-.111-1.96-.3-3.92-.475-5.834-.084-.886-.167-1.772-.243-2.656a.272.272,0,0,0-.308-.24.277.277,0,0,0-.278.284c.077,1.592.19,3.208.3,4.771.19,2.722.387,5.536.4,8.313.006,1.526-.078,3.068-.159,4.56-.1,1.857-.161,3.767-.137,5.678.021,1.612-.541.067-.541.067a39.519,39.519,0,0,1-2.213-11.67c-.094-2.882-.056-10.1,2.312-14.871.208-.418.413-.629.613-.629l.041,0c.679.1,1.409,2.566,1.831,4.968a42.217,42.217,0,0,1,.459,4.547c.04.608.08,1.236.131,1.852a27.763,27.763,0,0,1-.976,8.345c-.282,1.268-.57,2.563-.771,3.88s-.224.011-.224.011c.026-1.205.1-2.412.169-3.59.059-.982.12-2,.15-2.978a23.032,23.032,0,0,0,.652-5.688c.018-.6.037-1.229.072-1.844A.186.186,0,0,0,876.166,443.167ZM868.795,464q-.189-.3-.378-.6c-.534-.852-1.1-1.684-1.688-2.5a24.18,24.18,0,0,1-1.668-2.276c-.406-.731-.693-1.543-1.044-2.3-.825-1.781-1.714-3.532-2.63-5.267l-.191-.361a.2.2,0,0,0-.275-.086.2.2,0,0,0-.094.274c.482,1.01.936,2.065,1.375,3.085.2.461.369.937.6,1.386a2.1,2.1,0,0,1,.335.69,1.457,1.457,0,0,1-.569-.49l-.355-.435a76.787,76.787,0,0,1-6.592-8.918.2.2,0,0,0-.273-.071.187.187,0,0,0-.074.257,54.854,54.854,0,0,0,6.27,8.7c1.3,1.573,2.608,3.16,3.809,4.819.566.783,1.108,1.581,1.613,2.4q.733,1.193,1.473,2.385c.126.2.558.844.052.63a2.693,2.693,0,0,1-.494-.28c-.234-.162-.452-.35-.674-.523-.369-.286-.772-.527-1.164-.78l-.393-.254a28.918,28.918,0,0,1-6.878-6.781c-.263-.345-.537-.7-.819-1.064-2.6-3.368-5.844-7.56-6.053-11.745a.381.381,0,0,1,.2-.41c.739-.346,2.03.417,2.665.723a35.471,35.471,0,0,1,3.5,1.976c3.012,1.9,4.8,4.921,6.468,7.981a59.915,59.915,0,0,1,2.758,6.154c.489,1.209.985,2.437,1.528,3.645C869.717,465.3,868.795,464,868.795,464Zm-2.448,21.641c-.714-.04-1.435-.049-2.145-.058a20.7,20.7,0,0,1-4.927-.45l-.8-.208c-3.994-1.04-8.124-2.116-11.659-4.135-1.373-.785-2.035-1.554-1.916-2.225.137-.77,1.331-1.418,3.195-1.733a13.184,13.184,0,0,1,2.212-.177,25.227,25.227,0,0,1,5.955.846c3.469.851,6.133,3.1,8.627,5.464,1.345,1.092-.115.419-.115.419-1.027-.357-2.045-.622-3.018-.864-.433-.315-.895-.6-1.34-.884q-.239-.15-.475-.3c-1.254-.805-2.377-1.584-3.433-2.378a.168.168,0,0,0-.233.025.177.177,0,0,0,0,.244,20.428,20.428,0,0,0,2.248,1.977c1.555.961-.211.409-.211.409a14.2,14.2,0,0,1-4.857-2.464.268.268,0,0,0-.382.048.283.283,0,0,0,0,.4,14.839,14.839,0,0,0,6.688,3.376,50.573,50.573,0,0,1,6.6,2.183S868.011,485.687,866.347,485.636Zm9.391,12.615-1,.285a35.551,35.551,0,0,1-8.557,1.683,29.6,29.6,0,0,1-12.594-2.594c-.239-.1-.357-.218-.35-.355.047-.992,5.343-2.936,5.808-3.078a14.786,14.786,0,0,1,3.914-.458c.827,0,1.647.043,2.449.093,3.458.217,6.455,1.383,9.627,2.618l.173.067s1.914.593,0,.612c-1.037-.018-2.109.016-3.233.08-.757.043-1.512.095-2.265.147a61.29,61.29,0,0,1-6.928.213c-.785-.036-1.541-.131-2.273-.223a13.274,13.274,0,0,0-4.637-.027.32.32,0,0,0,.131.625,23.23,23.23,0,0,1,7.068,0,41.823,41.823,0,0,0,4.194.28s1.094.022.178.283a11.01,11.01,0,0,1-3.078.554h-.087a.186.186,0,0,0-.187.187.175.175,0,0,0,.172.183,11.409,11.409,0,0,0,6-1.413,37.956,37.956,0,0,1,5.466-.169S877.22,497.829,875.737,498.252Z" transform="translate(-843.39 -432.503)" fill="#0d927d"/>
      <path id="Trazado_216" data-name="Trazado 216" d="M872.229,472.087a.141.141,0,0,0-.054.19h0a36.1,36.1,0,0,0,7.762,9.475.187.187,0,0,0,.127.05.185.185,0,0,0,.131-.054.174.174,0,0,0,.008-.245c-.631-.722-1.279-1.443-1.906-2.141a62.257,62.257,0,0,1-5.863-7.228A.153.153,0,0,0,872.229,472.087Z" transform="translate(-860.49 -456.02)" fill="#0d927d"/>
      <path id="Trazado_217" data-name="Trazado 217" d="M916.652,456.506a.167.167,0,0,0-.159.168h0c.064,3.667.411,7.327.742,10.426a.172.172,0,0,0,.178.152h.011a.18.18,0,0,0,.178-.176,66.521,66.521,0,0,0-.763-10.429A.162.162,0,0,0,916.652,456.506Z" transform="translate(-886.843 -446.77)" fill="#0d927d"/>
      <path id="Trazado_218" data-name="Trazado 218" d="M952.381,495.9a.188.188,0,0,0,.191-.169c.3-2.24.529-4.64.718-7.551a.189.189,0,0,0-.182-.208.2.2,0,0,0-.217.182c-.075.953-.192,1.922-.305,2.859a43.053,43.053,0,0,0-.393,4.694.185.185,0,0,0,.175.192Z" transform="translate(-908.062 -465.476)" fill="#0d927d"/>
      <path id="Trazado_219" data-name="Trazado 219" d="M968.2,525.606h0c-.278.346-.566.69-.855,1.035a18.306,18.306,0,0,0-2.789,4,.165.165,0,0,0,.072.217.208.208,0,0,0,.1.028.181.181,0,0,0,.151-.077c1.089-1.534,2.3-3.153,3.688-4.948a.2.2,0,0,0-.034-.292A.238.238,0,0,0,968.2,525.606Z" transform="translate(-915.4 -487.792)" fill="#0d927d"/>
      <path id="Trazado_220" data-name="Trazado 220" d="M977.474,571.237a.2.2,0,0,0,.163-.086,9.148,9.148,0,0,0,1.4-5.736.166.166,0,0,0-.17-.156h0a.2.2,0,0,0-.2.169,20.051,20.051,0,0,1-.471,2.936,14.843,14.843,0,0,1-.553,1.648c-.12.317-.244.644-.353.971a.188.188,0,0,0,.1.232A.2.2,0,0,0,977.474,571.237Z" transform="translate(-922.973 -511.414)" fill="#0d927d"/>
      <path id="Trazado_221" data-name="Trazado 221" d="M863.586,550.1c-.932-.485-1.863-1.052-2.763-1.6a27.527,27.527,0,0,0-5-2.6h0a.181.181,0,0,0-.227.11.168.168,0,0,0,.079.222,28.127,28.127,0,0,1,2.831,1.729,16.871,16.871,0,0,0,4.9,2.546.215.215,0,0,0,.057.007.246.246,0,0,0,.222-.159A.2.2,0,0,0,863.586,550.1Z" transform="translate(-850.633 -499.905)" fill="#0d927d"/>
      <path id="Trazado_222" data-name="Trazado 222" d="M879.219,587.9h0a10.72,10.72,0,0,0,2.293.223c.836,0,1.67-.068,2.489-.134a23.567,23.567,0,0,1,3.258-.114.191.191,0,0,0,.19-.166.168.168,0,0,0-.133-.193,13.549,13.549,0,0,0-4.067-.015,13.815,13.815,0,0,1-3.923.008.213.213,0,0,0-.251.171A.181.181,0,0,0,879.219,587.9Z" transform="translate(-864.599 -524.548)" fill="#0d927d"/>
      <path id="Trazado_223" data-name="Trazado 223" d="M885.39,523.887a.2.2,0,0,0-.062.278h0c.308.487.613.979.919,1.472a46.4,46.4,0,0,0,3.863,5.6.193.193,0,0,0,.15.07.223.223,0,0,0,.13-.044.2.2,0,0,0,.058-.265c-.892-1.455-1.885-2.885-2.844-4.268-.629-.907-1.279-1.844-1.894-2.777A.23.23,0,0,0,885.39,523.887Z" transform="translate(-868.298 -486.8)" fill="#0d927d"/>
    </g>
  </g>
  <g id="Grupo_245" data-name="Grupo 245" transform="translate(-3 -2137)">
    <path id="Trazado_209" data-name="Trazado 209" d="M255.024,504.784a52.845,52.845,0,0,1,7.573-4.564,63.537,63.537,0,0,1,11.635-5.135,65.836,65.836,0,0,1,12.692-1.964c3.392-.3,6.847-.6,10.173.135A31.765,31.765,0,0,1,303.6,495.7c4.407,2.055,8.914,4.333,11.947,8.133,5.251,6.578,4.8,16.149,2,24.086a22.233,22.233,0,0,1-3.647,6.935c-4.131,4.961-11.082,6.612-15.848,10.967-2.224,2.032-3.928,4.618-6.343,6.419-3.24,2.416-7.418,3.169-11.451,3.424a29.622,29.622,0,0,1-11.237-1.1,26.305,26.305,0,0,1-11.791-8.708,71,71,0,0,1-7.7-12.677c-2.2-4.317-5.239-10.222-3.864-15.143A26.43,26.43,0,0,1,255.024,504.784Z" transform="translate(-217.111 1703.954)" fill="#e5e5e5"/>
    <path id="Trazado_210" data-name="Trazado 210" d="M400.425,523.313a14.756,14.756,0,0,1-5.945-1.257c-2.619-1.227-4.648-3.405-6.607-5.532-1.632-1.771-3.364-3.787-3.356-6.194.008-2.558,2.026-4.691,4.241-5.97s4.729-1.994,6.885-3.37c2.7-1.722,4.762-4.434,7.733-5.62,5.1-2.038,10.907,1.224,14.376,5.486C426.961,512.17,411.335,523.555,400.425,523.313Z" transform="translate(-303.24 1702.747)" fill="#5cc398"/>
    <path id="Trazado_211" data-name="Trazado 211" d="M286.973,417.913c-3.075-3.346-8.232-5.628-13.794-6.106a21.405,21.405,0,0,0-7.384.679,31.838,31.838,0,0,0-6.467,2.616c-.559.292-1.109.6-1.662.9s-1.109.553-1.641.873c-.181.109-.356.225-.529.345-.067.047-.32.246-.4.138-.093-.125.32-.557.389-.657.219-.316.424-.628.619-.942q.857-1.381,1.85-2.67a7.6,7.6,0,0,1,2.31-2.343,17.152,17.152,0,0,1,3.657-1.329l.486-.128a18.4,18.4,0,0,0,4.276-1.519,17.378,17.378,0,0,0,4.92-3.837,58.351,58.351,0,0,0,5.806-8.626c1.055-1.791,2.146-3.643,3.339-5.39a.277.277,0,0,0-.034-.36.272.272,0,0,0-.357-.024,42.882,42.882,0,0,1-6.892,3.747c-3.053,1.427-6.21,2.9-8.711,5.221a28.739,28.739,0,0,0-4.262,5.036,39.234,39.234,0,0,0-3.487,6.481,16.774,16.774,0,0,1-1.7,2.6c-.851,1.419-.3-.2-.3-.2.407-1.374.858-2.741,1.3-4.075q.765-2.316,1.47-4.65a1.264,1.264,0,0,1,.124-.277,7.986,7.986,0,0,1,.622-.8q.436-.568.85-1.154a30.4,30.4,0,0,0,1.775-2.822,18.712,18.712,0,0,0,2.115-5.559c.478-2.562-.357-4.89-1.164-7.141a19.458,19.458,0,0,1-1.3-4.966.354.354,0,0,0-.313-.326.4.4,0,0,0-.433.23c-2.389,5.923-4.858,13.634-3.02,21.174a2.279,2.279,0,0,1,.008,1.184q-1.15,3.421-2.044,6.918c-.212.828-.4,1.663-.609,2.491-.135.534-.237,1.076-.383,1.607a3.22,3.22,0,0,1-.258.724c-.137.243-.313.47-.473.7-.38.547-.775,1.085-1.195,1.6-.932,1.152-1.958,2.251-2.95,3.315a36.381,36.381,0,0,0-4.84,5.991,13.545,13.545,0,0,0-.7,1.341l-.131.3q-.212.495-.4,1.025c-.326.855-.212-.04-.212-.04.04-.415.085-.824.136-1.23l.207-1.43a75.631,75.631,0,0,1,1.94-8.258,19.045,19.045,0,0,1,1.931-4.086c1.52-2.792,3.092-5.679,3.436-9.013a37.6,37.6,0,0,0-2.178-16.63c-.176-.507-.376-1.058-.619-1.7-.163-.433-.418-1.015-.754-1.07a.4.4,0,0,0-.372.179,2.427,2.427,0,0,0-.26.43c-.024.048-.049.095-.073.14-.108.2-.215.407-.318.618l-.028.057a6.624,6.624,0,0,0-.271.608c-.035.1-.066.195-.1.294a3.986,3.986,0,0,1-.13.382,10.43,10.43,0,0,1-.485.958c-.064.117-.129.234-.191.352l-.054.1c-.218.411-.444.835-.656,1.259a16.743,16.743,0,0,0-.719,1.617,26.911,26.911,0,0,0-1.511,8.514c-.022.638-.422.131-.422.131A21.991,21.991,0,0,0,241,399.107a23.382,23.382,0,0,1-2.26-2.214,9.388,9.388,0,0,1-.931-1.288c-.141-.238-.259-.486-.383-.733a.7.7,0,0,0-.884-.24c-.262.13-.13.494-.094.713q.078.473.173.944.184.909.435,1.8a20.505,20.505,0,0,0,1.234,3.285,18.652,18.652,0,0,0,1.179,2.1,20.257,20.257,0,0,0,2.648,3.041c1.445,1.455,2.94,2.96,3.519,4.817,1.2,3.838.261,7.766-.587,11.563-.035.156-.064.313-.1.47q-.069.332-.134.664c-.021.1-.1.9-.286.871-.091-.015-.109-.192-.113-.329a18.99,18.99,0,0,0-.365-2.806,30.453,30.453,0,0,0-.841-3.509,28.121,28.121,0,0,0-1.231-3.292,29.022,29.022,0,0,0-1.643-3.134q-.177-.293-.36-.583a28.322,28.322,0,0,0-7.755-7.984,46.31,46.31,0,0,1-4.759-4.185c-1.009-.973-2.052-1.979-3.145-2.909a.329.329,0,0,0-.386-.015.31.31,0,0,0-.15.337c1.592,6.447,3.545,11.622,7.906,15.923,1.184,1.168,2.434,2.287,3.642,3.369.911.816,1.823,1.631,2.711,2.471.872.824,1.722,1.672,2.522,2.566a25.557,25.557,0,0,1,2.2,2.805q.5.75.94,1.542a4.455,4.455,0,0,1,.4.806,3.824,3.824,0,0,1,.141.963,5.216,5.216,0,0,1,0,.7c-.022.228-.085.465-.085.694-.066.611-.12,1.224-.152,1.839q-.011.207-.018.415a95.534,95.534,0,0,1-2.091,16.558c-1.851,8.725-4.386,20.674-12.53,27.358a.268.268,0,0,0-.034.383.272.272,0,0,0,.209.1.259.259,0,0,0,.163-.061A27.084,27.084,0,0,0,237.1,465.3a59.391,59.391,0,0,0,4.036-11.686,11.842,11.842,0,0,1,5.217-5.936,7.207,7.207,0,0,1,2.2-.767c.457-.095.923-.189,1.4-.286,4.414-.888,9.417-1.9,12.738-5.093,3.523-3.391,5.433-7.773,5.841-13.394a.387.387,0,0,0-.221-.367.307.307,0,0,0-.355.055,20.4,20.4,0,0,1-6.275,3.586,23.23,23.23,0,0,0-5.61,3.005,24.541,24.541,0,0,0-7.622,10.128.21.21,0,0,0,.108.26.187.187,0,0,0,.247-.066l.417-.648c2.924-4.544,5.684-8.835,10.9-11.109.331-.145.662-.287.993-.429a52.657,52.657,0,0,0,4.805-2.265,6.4,6.4,0,0,0,.948-.7c.241-.2.542-.452.617-.406.041.024.116.179-.061,1.1-.871,4.54-3.106,10.486-8.8,13.032a41.984,41.984,0,0,1-6.712,2.141c-1.086.281-2.2.568-3.3.9.824-.443,1.666-.867,2.486-1.279,1.545-.777,3-1.511,4.3-2.335,4.322-2.752,10.24-6.52,11.979-12.6a.21.21,0,0,0-.122-.259.2.2,0,0,0-.26.1c-3.085,6.073-8.277,10.72-16.834,15.067-.287.146-.582.293-.881.443-2.724,1.362-5.794,2.9-7.5,5.409q.094-.408.185-.812a103.124,103.124,0,0,0,2.609-16.73,20.37,20.37,0,0,1,5.239-10.194q.488-.516.979-1.027c1.652-1.725,3.24-4.007,5.836-4.168a7.833,7.833,0,0,1,3.068.6c.877.318,1.726.706,2.574,1.091,2.284,1.037,4.646,2.109,6.88,1.629a12.29,12.29,0,0,0,4.294-2.075c.307-.2.619-.408.944-.613,3.7-2.343,7.323-1.434,11.155-.471.376.094.754.189,1.136.282a.282.282,0,0,0,.314-.145A.305.305,0,0,0,286.973,417.913ZM260.9,407.878c2.785-5,5.713-9.3,10.949-11.976.955-.489,1.948-.95,2.908-1.4,1.346-.626,2.737-1.272,4.054-2.006l.313-.174c.409-.227.825-.457,1.234-.7,0,0,1.148-.928.358.368-.55.9-1.1,1.807-1.668,2.772-2.133,3.606-4.339,7.334-7.432,9.969a18.646,18.646,0,0,1-6.361,3.148,31.712,31.712,0,0,0-3.707,1.447l-.124-.2c1.183-1.214,2.4-2.369,3.679-3.578,1.44-1.365,2.93-2.776,4.374-4.291a.181.181,0,0,0,0-.257.213.213,0,0,0-.156-.071.189.189,0,0,0-.12.042c-2.841,2.3-5.569,4.687-8.119,7.113C260.384,408.747,260.9,407.878,260.9,407.878Zm-1.258-17.818a31.285,31.285,0,0,1,2.14-6.523s.521-1.45.577-.166a3.589,3.589,0,0,0,.164.783c.253.885.563,1.735.863,2.556.946,2.591,1.839,5.039.7,8.022a38.912,38.912,0,0,1-3.344,6.656c-.672,1.118-.33-.191-.33-.191.03-.134.059-.265.086-.395a43.3,43.3,0,0,0,.408-11.991.192.192,0,0,0-.191-.181h-.008a.212.212,0,0,0-.217.18,47.3,47.3,0,0,0-.318,5.494,44.089,44.089,0,0,1-.319,5.413c-.157,1.4-.334-.007-.334-.007A35.311,35.311,0,0,1,259.644,390.061Zm-15.437,17.929c-.4-.435-.829-.854-1.273-1.285l-.308-.3a20.625,20.625,0,0,1-3.923-5.371,17.092,17.092,0,0,1-.937-2.2q-.191-.555-.337-1.123c-.116-.456-.188-.9-.333-1.353a.173.173,0,0,1-.006-.129c.054-.1.293.228.44.447.056.084.1.151.112.17a10.419,10.419,0,0,0,1.579,1.751l.307.271c.841.745,1.685,1.489,2.461,2.3a7.956,7.956,0,0,1,1.947,2.622c.034.1.235.637.021.6-.086-.015-.2-.2-.245-.273a5.058,5.058,0,0,0-1.932-1.767.228.228,0,0,0-.266.353,11.585,11.585,0,0,1,3.09,5.07C244.876,408.9,244.207,407.989,244.207,407.989Zm1.544,1.226a35.262,35.262,0,0,1-1-3.84,20.912,20.912,0,0,1-.288-3.958,24,24,0,0,1,1.1-7.335,14.854,14.854,0,0,1,.878-2.13,32.9,32.9,0,0,0,2.091-4.515c.046-.135.083-.424.215-.5.166-.1.271.219.332.48.031.132.051.248.062.288.533,1.944,1.3,3.829,1.778,5.8q.209.856.384,1.72c.2,1.019.364,2.025.473,2.991a29.939,29.939,0,0,1,.191,3.014,26.053,26.053,0,0,1-.139,3.03c-.077.725-.186,1.451-.326,2.157a27.944,27.944,0,0,1-2.939,7.309l-.22.427c-.671,1.067-.517-.121-.517-.121.288-2.209.477-4.463.682-6.683a43.141,43.141,0,0,0,.162-7.045.211.211,0,0,0-.22-.2.223.223,0,0,0-.231.2c-.351,3.553-.549,7.2-.74,10.733-.048.894-.1,1.787-.145,2.664-.234,1.875-.467-.016-.467-.016A29.647,29.647,0,0,0,245.751,409.215ZM243.439,421.5c-.038.012-.1-.091-.119-.114s-.052-.074-.076-.113c-.15-.249-.245-.553-.368-.811-.2-.409-.406-.811-.634-1.2q-.17-.293-.353-.58a3.335,3.335,0,0,0-.376-.565q-.433-.622-.924-1.2c-1.191-1.4-2.529-2.7-3.824-3.961a39.963,39.963,0,0,1-5.244-5.812.152.152,0,0,0-.208-.039.149.149,0,0,0-.059.2,24.78,24.78,0,0,0,4.974,5.961c.785.763,1.6,1.551,2.366,2.385a23.626,23.626,0,0,1,4.026,5.924c.244.5-.18.1-.18.1a43.628,43.628,0,0,0-5.634-5.733c-5-4.426-9.3-8.636-11.3-15.357-.3-1-.795-2.669-.609-2.779a.052.052,0,0,1,.027-.006,7.64,7.64,0,0,1,1.651,1.476l.557.56.374.376a24.109,24.109,0,0,0,2.259,2.094c.679.529,1.4,1.051,2.09,1.556a24.6,24.6,0,0,1,6.256,5.764c.769,1.142,1.492,2.317,2.152,3.526a35.414,35.414,0,0,1,1.667,3.481,31.4,31.4,0,0,1,1.207,3.5A5.656,5.656,0,0,1,243.439,421.5Zm42.043-4.146c-.058.081-.347-.021-.411-.038s-.128-.035-.192-.055c-.244-.065-.529-.154-.773-.23-.223-.069-.451-.141-.669-.2a11.385,11.385,0,0,0-6.233-.4,13.687,13.687,0,0,0-3.565,1.883,14.836,14.836,0,0,1-3.1,1.718c-2.7.977-4.967.086-7.368-.857-.353-.138-.709-.278-1.071-.414a19.157,19.157,0,0,0-4.978-1.241c-.82-.067,0-.314,0-.314a21.968,21.968,0,0,1,10.67-.253.154.154,0,0,0,.181-.119.16.16,0,0,0-.1-.2,16.806,16.806,0,0,0-7.945-.765c-.754.151-.031-.236-.031-.236l.178-.09a25.011,25.011,0,0,1,7.579-2.863,23.905,23.905,0,0,1,11.457,1.1,18.693,18.693,0,0,1,5.413,2.709c.2.159.386.335.594.481a2.3,2.3,0,0,1,.265.209C285.422,417.211,285.523,417.294,285.482,417.352Z" transform="translate(-203.779 1773.349)" fill="#0d927d"/>
  </g>
  <path id="Trazado_228" data-name="Trazado 228" d="M.01,412.772A37.973,37.973,0,0,1,3.28,397.4c3.194-6.771,8.864-12.019,14.4-17.087,4.608-4.22,9.855-8.7,16.122-8.68a13.021,13.021,0,0,1,3.377.464v92.536C16.282,462.272-.464,434.055.01,412.772Z" transform="translate(338 -354.601)" fill="#f2e0df"/>
  <path id="Trazado_227" data-name="Trazado 227" d="M0,38.644c2.1-15.18,18.876-33.378,30.759-37.2C41.091-1.886,52.135.725,60.438,7.448c7.058,5.715,17.973,11.4,23.729,18.308a29.654,29.654,0,0,1,6.46,12.889Z" transform="translate(38.644 251.684) rotate(90)" fill="#fff"/>
</svg>
