<svg xmlns="http://www.w3.org/2000/svg" width="26.303" height="23" viewBox="0 0 26.303 23">
  <g id="basket" transform="translate(-745.348 -383.447)">
    <path id="Trazado_263" data-name="Trazado 263" d="M770.7,390.188h-3.121v-5.8a.936.936,0,0,0-.936-.936h-16.29a.936.936,0,0,0-.936.936v5.8H746.3a.936.936,0,0,0-.949.923.907.907,0,0,0,.013.169l2.4,14.387a.936.936,0,0,0,.936.78h19.6a.937.937,0,0,0,.936-.78l2.4-14.387a.935.935,0,0,0-.936-1.092Zm-4.993,0H751.29v-4.868h14.418Z" transform="translate(0 0)" fill="#0d927d"/>
  </g>
</svg>
