<svg xmlns="http://www.w3.org/2000/svg" width="55" height="53.235" viewBox="0 0 55 53.235">
  <g id="basket-product" transform="translate(0 0)">
    <g id="Componente_47_1" data-name="Componente 47 – 1">
      <path id="Trazado_229" data-name="Trazado 229" d="M366.9,163.705a49.625,49.625,0,0,0-1.884-4.655,17.091,17.091,0,0,0-6.885-8.011,37.917,37.917,0,0,0-5.321-2.937,24.934,24.934,0,0,0-8.089-1.793c-7.191-.473-13.725-.136-19.889,3.705a20.9,20.9,0,0,0-5.557,4.828,27.038,27.038,0,0,0-4.074,8.644,37.266,37.266,0,0,0-1.772,8.533c-.325,4.768,1.315,9.452,3.681,13.527a29.6,29.6,0,0,0,6.678,8.33c3,2.431,6.755,3.632,10.417,4.677a30.837,30.837,0,0,0,10.11.716,20.759,20.759,0,0,0,6.169-1.893,43.205,43.205,0,0,0,5.778-2.657,24.643,24.643,0,0,0,10.821-13.57A27.977,27.977,0,0,0,366.9,163.705Z" transform="translate(-313.39 -146.143)" fill="#0d927d"/>
    </g>
    <g id="Grupo_227" data-name="Grupo 227" transform="translate(-587 -296)">
      <g id="Componente_49_2" data-name="Componente 49 – 2" transform="translate(601 311)">
        <path id="Trazado_263" data-name="Trazado 263" d="M771.611,390.54h-3.233v-6.108a.978.978,0,0,0-.97-.985H750.534a.978.978,0,0,0-.97.985v6.108h-3.233a.977.977,0,0,0-.983.971.965.965,0,0,0,.014.178l2.489,15.139a.974.974,0,0,0,.97.821h20.3a.975.975,0,0,0,.97-.821l2.489-15.139a.984.984,0,0,0-.795-1.136A.941.941,0,0,0,771.611,390.54Zm-5.172,0H751.5v-5.123h14.935Z" transform="translate(-745.348 -383.447)" fill="#ebccc9"/>
      </g>
      <g id="Grupo_226" data-name="Grupo 226" transform="translate(-47.347 -25.46)">
        <g id="Group" transform="translate(666.603 347.077) rotate(90)">
          <path id="Line_Copy" data-name="Line Copy" d="M0,0V9.266" transform="translate(4.607)" fill="none" stroke="#0d917d" stroke-linecap="round" stroke-miterlimit="10" stroke-width="1.5"/>
          <path id="Line_Copy_2" data-name="Line Copy 2" d="M0,0H9.213" transform="translate(0 4.633)" fill="none" stroke="#0d917d" stroke-linecap="round" stroke-miterlimit="10" stroke-width="1.5"/>
        </g>
      </g>
    </g>
  </g>
</svg>
