<svg id="Grupo_234" data-name="Grupo 234" xmlns="http://www.w3.org/2000/svg" width="33.443" height="29.243" viewBox="0 0 33.443 29.243">
  <path id="Trazado_263" data-name="Trazado 263" d="M777.583,392.017h-3.968v-7.38a1.19,1.19,0,0,0-1.19-1.19H751.713a1.19,1.19,0,0,0-1.19,1.19v7.38h-3.968a1.19,1.19,0,0,0-1.207,1.173,1.154,1.154,0,0,0,.017.215L748.42,411.7a1.19,1.19,0,0,0,1.19.992h24.918a1.191,1.191,0,0,0,1.19-.992l3.055-18.292a1.189,1.189,0,0,0-1.19-1.389Zm-6.348,0H752.9v-6.19h18.331Z" transform="translate(-745.348 -383.447)" fill="#ebccc9"/>
</svg>
