<svg xmlns="http://www.w3.org/2000/svg" width="438.32" height="2864" viewBox="0 0 438.32 2864">
  <g id="bg-mobile" transform="translate(32.089)">
    <rect id="bg" width="375" height="2864" fill="none"/>
    <g id="Grupo_248" data-name="Grupo 248" transform="translate(-4 -6.632)">
      <path id="Trazado_197" data-name="Trazado 197" d="M576.268,367.981c-1.737,1.465-3.851,1.277-6.3.522a6.674,6.674,0,0,1-2.413-1.527c-1.557-1.4-4.562-3.85-4.624-6.152-.087-3.273,5.165-3.9,7.511-4.053,2.485-.158,5.32-.188,7.036,1.617,2.125,2.235,1.548,5.9-.043,8.259A6.393,6.393,0,0,1,576.268,367.981Z" transform="translate(-211.242 419.553)" fill="#eacbc9"/>
      <path id="Trazado_198" data-name="Trazado 198" d="M570.23,344.748a2.7,2.7,0,0,1-1.619.434c-3.393-.2-5.925-3.9-7.346-6.582-1.4-2.629-4.588-6.562-.451-8.336a33.141,33.141,0,0,1,9.841-2.522,4.706,4.706,0,0,1,2.368.206c4.283,1.9,1,11.967-.795,14.625A7.316,7.316,0,0,1,570.23,344.748Z" transform="translate(-211.236 419.592)" fill="#eacbc9"/>
      <path id="Trazado_199" data-name="Trazado 199" d="M587.3,313.843c-1.566.511-2.306,2.266-3.534,3.363-2.29,2.045-6.12,1.415-8.359-.687s-3.175-5.244-3.591-8.286a7.249,7.249,0,0,1,.1-3.221c.568-1.749,2.225-2.888,3.836-3.778,3.543-1.956,7.86-3.356,11.586-1.775,3.605,1.531,4.949,5.3,4.793,8.94C591.92,313.241,591.594,312.437,587.3,313.843Z" transform="translate(-211.253 419.631)" fill="#eacbc9"/>
      <path id="Trazado_201" data-name="Trazado 201" d="M551.249,306.073c-1.759-1.173-3.681-2.6-3.953-4.7a5,5,0,0,1,1.341-3.8,9.447,9.447,0,0,1,3.653-2.826c1.854-.65,1.862.606,3.438,1.034a3.779,3.779,0,0,0,1.063.04,4.367,4.367,0,0,1,3.346,7.251c-.329.374-.72.69-1.023,1.085C556.891,307.057,554.752,308.409,551.249,306.073Z" transform="translate(-211.22 419.637)" fill="#eacbc9"/>
      <path id="Trazado_202" data-name="Trazado 202" d="M534.384,328.177a6.608,6.608,0,0,1-2.992-6.767c.1-.488.251-.968.307-1.463.159-1.426-.5-2.912-.05-4.273a3.443,3.443,0,0,1,3.309-2.131,6.186,6.186,0,0,1,3.8,1.6,36.147,36.147,0,0,1,2.93,3.014,8.887,8.887,0,0,1,2.382,3.243C545.761,326.89,538.756,330.811,534.384,328.177Z" transform="translate(-211.199 419.611)" fill="#eacbc9"/>
      <path id="Trazado_203" data-name="Trazado 203" d="M533.981,362.781a4.782,4.782,0,0,1-4.034-3.413,8.154,8.154,0,0,1-.162-1.528l-.134-3.231a5.237,5.237,0,0,1,.212-2.16,3.815,3.815,0,0,1,1.633-1.759,7.13,7.13,0,0,1,5.637-.727,7.529,7.529,0,0,1,4.432,3.586,5.01,5.01,0,0,1,.564,1.5C542.878,359.165,537.8,363.287,533.981,362.781Z" transform="translate(-211.197 419.562)" fill="#eacbc9"/>
      <path id="Trazado_204" data-name="Trazado 204" d="M513.906,338.252a6.155,6.155,0,0,1,.705-1.591,10.633,10.633,0,0,1,1.988-2.716,4.071,4.071,0,0,1,3.073-1.153,3.916,3.916,0,0,1,3.179,3.529c.082.716.008,1.443.086,2.16a4.852,4.852,0,0,1,.081,1.506c-.333,1.6-3.32,3.027-4.846,3.046C515.776,343.061,513.311,340.757,513.906,338.252Z" transform="translate(-211.175 419.585)" fill="#eacbc9"/>
      <path id="Trazado_196" data-name="Trazado 196" d="M593.329,352.755c-1.527-1.691-2.2-4-3.631-5.773a25.738,25.738,0,0,1-2.685-3.141c-1.479-2.6-.316-6.088,1.943-8.047,4.579-3.971,14.453-5.037,19.259-.9,3.569,3.073,5.369,11.839,2.391,15.837C607.479,354.926,597.074,356.9,593.329,352.755Z" transform="translate(-211.274 419.586)" fill="#eacbc9"/>
      <path id="Trazado_200" data-name="Trazado 200" d="M621.417,317.862a19.14,19.14,0,0,1,.053,3.489,3.283,3.283,0,0,1-.272,1.154c-1.2,2.472-4.388,2.523-6.713,1.991a8.675,8.675,0,0,1-5.521-3.826A9.109,9.109,0,0,0,606.778,318c-1.094-.837-2.508-1.543-2.858-3a3.474,3.474,0,0,1,1.455-3.392,10.205,10.205,0,0,1,3.574-1.508l4.477-1.246a9.4,9.4,0,0,1,3.477-.51,4.407,4.407,0,0,1,3.77,4C620.9,314.085,621.242,315.992,621.417,317.862Z" transform="translate(-211.297 419.619)" fill="#eacbc9"/>
    </g>
    <g id="Grupo_250" data-name="Grupo 250" transform="translate(-334.73 1358.582)">
      <path id="Trazado_197-2" data-name="Trazado 197" d="M576.268,367.981c-1.737,1.465-3.851,1.277-6.3.522a6.674,6.674,0,0,1-2.413-1.527c-1.557-1.4-4.562-3.85-4.624-6.152-.087-3.273,5.165-3.9,7.511-4.053,2.485-.158,5.32-.188,7.036,1.617,2.125,2.235,1.548,5.9-.043,8.259A6.393,6.393,0,0,1,576.268,367.981Z" transform="translate(-211.242 419.553)" fill="#eacbc9"/>
      <path id="Trazado_198-2" data-name="Trazado 198" d="M570.23,344.748a2.7,2.7,0,0,1-1.619.434c-3.393-.2-5.925-3.9-7.346-6.582-1.4-2.629-4.588-6.562-.451-8.336a33.141,33.141,0,0,1,9.841-2.522,4.706,4.706,0,0,1,2.368.206c4.283,1.9,1,11.967-.795,14.625A7.316,7.316,0,0,1,570.23,344.748Z" transform="translate(-211.236 419.592)" fill="#eacbc9"/>
      <path id="Trazado_199-2" data-name="Trazado 199" d="M587.3,313.843c-1.566.511-2.306,2.266-3.534,3.363-2.29,2.045-6.12,1.415-8.359-.687s-3.175-5.244-3.591-8.286a7.249,7.249,0,0,1,.1-3.221c.568-1.749,2.225-2.888,3.836-3.778,3.543-1.956,7.86-3.356,11.586-1.775,3.605,1.531,4.949,5.3,4.793,8.94C591.92,313.241,591.594,312.437,587.3,313.843Z" transform="translate(-211.253 419.631)" fill="#eacbc9"/>
      <path id="Trazado_201-2" data-name="Trazado 201" d="M551.249,306.073c-1.759-1.173-3.681-2.6-3.953-4.7a5,5,0,0,1,1.341-3.8,9.447,9.447,0,0,1,3.653-2.826c1.854-.65,1.862.606,3.438,1.034a3.779,3.779,0,0,0,1.063.04,4.367,4.367,0,0,1,3.346,7.251c-.329.374-.72.69-1.023,1.085C556.891,307.057,554.752,308.409,551.249,306.073Z" transform="translate(-211.22 419.637)" fill="#eacbc9"/>
      <path id="Trazado_202-2" data-name="Trazado 202" d="M534.384,328.177a6.608,6.608,0,0,1-2.992-6.767c.1-.488.251-.968.307-1.463.159-1.426-.5-2.912-.05-4.273a3.443,3.443,0,0,1,3.309-2.131,6.186,6.186,0,0,1,3.8,1.6,36.147,36.147,0,0,1,2.93,3.014,8.887,8.887,0,0,1,2.382,3.243C545.761,326.89,538.756,330.811,534.384,328.177Z" transform="translate(-211.199 419.611)" fill="#eacbc9"/>
      <path id="Trazado_203-2" data-name="Trazado 203" d="M533.981,362.781a4.782,4.782,0,0,1-4.034-3.413,8.154,8.154,0,0,1-.162-1.528l-.134-3.231a5.237,5.237,0,0,1,.212-2.16,3.815,3.815,0,0,1,1.633-1.759,7.13,7.13,0,0,1,5.637-.727,7.529,7.529,0,0,1,4.432,3.586,5.01,5.01,0,0,1,.564,1.5C542.878,359.165,537.8,363.287,533.981,362.781Z" transform="translate(-211.197 419.562)" fill="#eacbc9"/>
      <path id="Trazado_204-2" data-name="Trazado 204" d="M513.906,338.252a6.155,6.155,0,0,1,.705-1.591,10.633,10.633,0,0,1,1.988-2.716,4.071,4.071,0,0,1,3.073-1.153,3.916,3.916,0,0,1,3.179,3.529c.082.716.008,1.443.086,2.16a4.852,4.852,0,0,1,.081,1.506c-.333,1.6-3.32,3.027-4.846,3.046C515.776,343.061,513.311,340.757,513.906,338.252Z" transform="translate(-211.175 419.585)" fill="#eacbc9"/>
      <path id="Trazado_196-2" data-name="Trazado 196" d="M593.329,352.755c-1.527-1.691-2.2-4-3.631-5.773a25.738,25.738,0,0,1-2.685-3.141c-1.479-2.6-.316-6.088,1.943-8.047,4.579-3.971,14.453-5.037,19.259-.9,3.569,3.073,5.369,11.839,2.391,15.837C607.479,354.926,597.074,356.9,593.329,352.755Z" transform="translate(-211.274 419.586)" fill="#eacbc9"/>
      <path id="Trazado_200-2" data-name="Trazado 200" d="M621.417,317.862a19.14,19.14,0,0,1,.053,3.489,3.283,3.283,0,0,1-.272,1.154c-1.2,2.472-4.388,2.523-6.713,1.991a8.675,8.675,0,0,1-5.521-3.826A9.109,9.109,0,0,0,606.778,318c-1.094-.837-2.508-1.543-2.858-3a3.474,3.474,0,0,1,1.455-3.392,10.205,10.205,0,0,1,3.574-1.508l4.477-1.246a9.4,9.4,0,0,1,3.477-.51,4.407,4.407,0,0,1,3.77,4C620.9,314.085,621.242,315.992,621.417,317.862Z" transform="translate(-211.297 419.619)" fill="#eacbc9"/>
    </g>
    <g id="Componente_46_15" data-name="Componente 46 – 15" transform="translate(375 1473.913) rotate(180)">
      <path id="Trazado_228" data-name="Trazado 228" d="M58.984,437.026c-.186-8.386-1.613-16.846-5.19-24.441-5.07-10.763-14.067-19.1-22.85-27.159-7.313-6.708-15.64-13.828-25.585-13.8A20.63,20.63,0,0,0,0,372.367V519.454C33.161,515.707,59.736,470.856,58.984,437.026Z" transform="translate(0 -371.629)" fill="#5cc299"/>
    </g>
    <g id="Componente_46_14" data-name="Componente 46 – 14" transform="translate(0 476.087)">
      <path id="Trazado_228-2" data-name="Trazado 228" d="M58.984,437.026c-.186-8.386-1.613-16.846-5.19-24.441-5.07-10.763-14.067-19.1-22.85-27.159-7.313-6.708-15.64-13.828-25.585-13.8A20.63,20.63,0,0,0,0,372.367V519.454C33.161,515.707,59.736,470.856,58.984,437.026Z" transform="translate(0 -371.629)" fill="#e5e5e5"/>
    </g>
  </g>
</svg>
