<svg xmlns="http://www.w3.org/2000/svg" width="286.348" height="281.493" viewBox="0 0 286.348 281.493">
  <g id="detail-1" transform="translate(0 67.548) rotate(-17)">
    <path id="Trazado_195" data-name="Trazado 195" d="M650.268,245.318c17.528-9.936,38.4-18.069,57.45-11.52,25.394,8.729,35.844,39.236,36.988,66.065.966,22.664-2.769,46.743-17.162,64.276-11.451,13.949-28.41,22.25-45.568,27.845-20.474,6.675-42.619,10.066-63.589,5.168s-40.525-19.185-47.709-39.486C552.226,305.522,612.343,266.815,650.268,245.318Z" transform="translate(-513.816 -175.752)" fill="#e5e5e5"/>
    <g id="Grupo_215" data-name="Grupo 215" transform="translate(-513.816 -175.752)">
      <path id="Trazado_196" data-name="Trazado 196" d="M593.338,352.783c-1.529-1.693-2.2-4-3.636-5.781a25.781,25.781,0,0,1-2.689-3.145c-1.481-2.6-.316-6.1,1.946-8.058,4.585-3.976,14.473-5.044,19.285-.9,3.574,3.077,5.376,11.855,2.394,15.859C607.508,354.957,597.089,356.938,593.338,352.783Z" fill="#fff"/>
      <path id="Trazado_197" data-name="Trazado 197" d="M576.286,368c-1.739,1.467-3.856,1.279-6.306.523a6.684,6.684,0,0,1-2.416-1.529c-1.559-1.4-4.568-3.855-4.63-6.16-.087-3.278,5.172-3.91,7.521-4.059,2.488-.158,5.327-.188,7.046,1.619,2.128,2.238,1.55,5.9-.043,8.27A6.4,6.4,0,0,1,576.286,368Z" fill="#fff"/>
      <path id="Trazado_198" data-name="Trazado 198" d="M570.246,344.771a2.7,2.7,0,0,1-1.621.435c-3.4-.2-5.933-3.908-7.356-6.591-1.4-2.633-4.594-6.571-.452-8.347a33.184,33.184,0,0,1,9.854-2.525,4.712,4.712,0,0,1,2.371.206c4.289,1.9,1,11.983-.8,14.645A7.327,7.327,0,0,1,570.246,344.771Z" fill="#fff"/>
      <path id="Trazado_199" data-name="Trazado 199" d="M587.319,313.863c-1.568.512-2.309,2.269-3.539,3.368-2.293,2.048-6.128,1.417-8.37-.688s-3.179-5.251-3.6-8.3a7.258,7.258,0,0,1,.1-3.225c.569-1.751,2.228-2.892,3.841-3.783,3.548-1.959,7.871-3.361,11.6-1.777,3.61,1.533,4.956,5.3,4.8,8.952C591.948,313.261,591.621,312.456,587.319,313.863Z" fill="#fff"/>
      <path id="Trazado_200" data-name="Trazado 200" d="M621.441,317.875a19.17,19.17,0,0,1,.053,3.494,3.287,3.287,0,0,1-.272,1.156c-1.206,2.475-4.394,2.526-6.722,1.994a8.687,8.687,0,0,1-5.528-3.831,9.121,9.121,0,0,0-2.19-2.672c-1.095-.838-2.511-1.545-2.862-3.005a3.479,3.479,0,0,1,1.457-3.4,10.219,10.219,0,0,1,3.579-1.51l4.483-1.248a9.409,9.409,0,0,1,3.482-.511,4.413,4.413,0,0,1,3.775,4.007C620.922,314.093,621.266,316,621.441,317.875Z" fill="#fff"/>
      <path id="Trazado_201" data-name="Trazado 201" d="M551.254,306.089c-1.761-1.175-3.686-2.6-3.958-4.7a5.012,5.012,0,0,1,1.343-3.807,9.459,9.459,0,0,1,3.658-2.83c1.857-.651,1.865.607,3.443,1.035a3.784,3.784,0,0,0,1.064.04,4.373,4.373,0,0,1,3.351,7.261c-.329.374-.721.691-1.024,1.086C556.9,307.074,554.762,308.428,551.254,306.089Z" fill="#fff"/>
      <path id="Trazado_202" data-name="Trazado 202" d="M534.388,328.2a6.617,6.617,0,0,1-3-6.776c.1-.489.251-.969.307-1.465.159-1.428-.5-2.916-.05-4.279a3.448,3.448,0,0,1,3.313-2.134,6.2,6.2,0,0,1,3.806,1.6,36.207,36.207,0,0,1,2.934,3.018,8.9,8.9,0,0,1,2.385,3.247C545.781,326.908,538.766,330.834,534.388,328.2Z" fill="#fff"/>
      <path id="Trazado_203" data-name="Trazado 203" d="M533.987,362.8a4.788,4.788,0,0,1-4.039-3.418,8.166,8.166,0,0,1-.162-1.53l-.134-3.235a5.245,5.245,0,0,1,.212-2.163,3.821,3.821,0,0,1,1.635-1.761,7.14,7.14,0,0,1,5.645-.728,7.54,7.54,0,0,1,4.438,3.591,5.014,5.014,0,0,1,.565,1.5C542.9,359.178,537.809,363.3,533.987,362.8Z" fill="#fff"/>
      <path id="Trazado_204" data-name="Trazado 204" d="M513.906,338.259a6.159,6.159,0,0,1,.706-1.593,10.646,10.646,0,0,1,1.991-2.72,4.077,4.077,0,0,1,3.077-1.155,3.922,3.922,0,0,1,3.183,3.534c.082.717.008,1.445.086,2.163A4.86,4.86,0,0,1,523.03,340c-.333,1.606-3.325,3.031-4.853,3.05C515.779,343.075,513.31,340.768,513.906,338.259Z" fill="#fff"/>
    </g>
    <path id="Trazado_205" data-name="Trazado 205" d="M690.926,240.112a38.977,38.977,0,0,1,8.136.476,4.391,4.391,0,0,1-.04-.6.659.659,0,0,1,.475-.63c1.358-.352,3.966-.879,5.356-.2.2-.011.41-.044.6-.042,1.542.022,5.45,1.4,3.787,3.577-1.22,1.594-4.048,1.9-5.879,1.737a6.106,6.106,0,0,1-1.217-.249c.028.065.051.128.081.193.108.251-.113.551-.391.4a2.827,2.827,0,0,1-1.286-1.406,3.825,3.825,0,0,1-1.4-2.2,34.565,34.565,0,0,1-7.766-.284,1.783,1.783,0,0,0-1.287.238c-.562.4-.783,1.309-1.09,1.9q-.624,1.2-1.233,2.411c-.808,1.607-1.591,3.226-2.332,4.865-.619,1.37-1.149,2.782-1.778,4.146-.078.169-.3.54-.216.734.128.29.6-.014.916-.231.108-.074.2-.137.249-.163a12.11,12.11,0,0,1,2.336-.822,23.29,23.29,0,0,1,5.03-.742,4.793,4.793,0,0,0,.708-.023,3.177,3.177,0,0,1,1.082-1.44c2.535-1.918,8.45-1.026,9.3,2.394a1.926,1.926,0,0,1-.663,1.971,7.9,7.9,0,0,1-3.664,2.211,5.263,5.263,0,0,1-4.321-.485,4.181,4.181,0,0,1-1.916-3.438c-.828.019-1.66.027-2.488.055a14.657,14.657,0,0,0-7.129,2.086,63.658,63.658,0,0,0-3.07,11.689c.269.807.56,1.61.824,2.419,4.506,13.755,9.517,28.074,13.536,42.619.088.319.145,1.107.438,1.3.232.153.263-.042.331-.286a7.5,7.5,0,0,0,.192-1.084c.042-.351.081-.7.154-1.049a20.48,20.48,0,0,1,.613-2.159c.246-.746.522-1.482.818-2.209a31.262,31.262,0,0,0,1.332-7.368c.463-3.717.954-7.431,1.4-11.15-1.353-.554-1.415-3.032-1.336-4.225a11.41,11.41,0,0,1,2.807-7.04.767.767,0,0,1,1.2.138c1.912,3.439.95,8.546-1.189,11.7a.673.673,0,0,1-.746.241,45.587,45.587,0,0,1-1.715,12.946s-.478,1.372.436.022c.639-1.266,1.272-2.474,1.831-3.594.718-1.435,1.44-2.866,2.18-4.281l.536-1.081a50.849,50.849,0,0,0,3.888-9.1c.388-1.429.546-3.1,1.011-4.581-.528-2.841-.167-6.562,1.988-8.661a.562.562,0,0,1,.939.237c.664,2.655.541,6.6-1.8,8.471a25.041,25.041,0,0,1-1.07,4.568s-.768,2.347.573.186a36.352,36.352,0,0,1,6.54-6.851c.18-3.9,3.865-8.611,7.868-8.115a2.649,2.649,0,0,1,2.3,1.363.56.56,0,0,1,.471.517,6.183,6.183,0,0,1-1.713,4.485,10.022,10.022,0,0,1-2.2,2.477c-1.076.781-3.249,2.271-4.7,1.578a1.35,1.35,0,0,1-.751-.873,5.342,5.342,0,0,1-.606.112.5.5,0,0,1-.369-.123,53.324,53.324,0,0,0-12.347,16.142s-1.165,1.879.165.408c2.9-3.047,7.76-4.781,12.021-5.007,2.354-2.846,7.666-3.614,10.568-1.6a.758.758,0,0,1,.171,1.165,13.418,13.418,0,0,1-4.872,3.531,8.877,8.877,0,0,1-6.356.013.83.83,0,0,1-.577-.987,4.966,4.966,0,0,1,.313-.921c-4.392,1.036-8.373,1.993-11.936,5.507a19.456,19.456,0,0,0-1.977,2.52c-3.348,6.237-6.926,13.629-4.891,19.922a.12.12,0,0,1-.009.071c3.229,12.948,5.482,26.025,5.687,39a.8.8,0,0,1-1.608.007A154.332,154.332,0,0,0,697.1,331.9c-2.72-9.227-9.476-15.021-17.339-19.868a10.739,10.739,0,0,0-3.771-1.52,39.141,39.141,0,0,0-11.113.194,1.659,1.659,0,0,1,.09.348,1.774,1.774,0,0,1-.885,1.4,9.8,9.8,0,0,1-2.174,1.316,5.409,5.409,0,0,1-4.12,1.359c-1.308-.124-2.84-.655-3.291-2.022-.558-1.692,1.586-3.509,2.93-4.037a8.371,8.371,0,0,1,6.195.324,3.253,3.253,0,0,1,.56.349,27.735,27.735,0,0,1,8.835-.807c.141.023,1.219.25,1.2-.051-.011-.2-.613-.441-.76-.515-3.153-1.573-6.239-3.328-9.294-5.081-1.486-.852-2.956-1.731-4.4-2.657q-1.066-.684-2.107-1.4-.516-.359-1.025-.727a4.782,4.782,0,0,1-2.464-.949c-.43-.291-.85-.6-1.287-.869a29.451,29.451,0,0,1-2.48-1.646c-.891-.675-3.626-2.7-2.617-4.129,1.2-1.712,4.766.091,5.868,1.045a9.812,9.812,0,0,1,2.368,3.125c.552,1.16.946,2.307,2.114,3,3.346,1.986,6.964,3.938,10.629,5.964,0,0,2.608,1.678.755-.534a30.235,30.235,0,0,1-3.6-6.947c-.21-.061-.413-.129-.592-.2-3.7-1.466-4.762-7.931-2.537-10.97a.713.713,0,0,1,1.087-.158,12.026,12.026,0,0,1,4.408,7.372c1.058.778,2,2.074,1.109,3.338a2.393,2.393,0,0,1-2.239.842,48.663,48.663,0,0,0,6.613,10.08c2.91,1.685,5.777,3.445,8.469,5.349,0,0,2.56,2.341.975-.675a41.189,41.189,0,0,1-1.86-7.038c-2.211-.853-2.486-4.717-2.114-6.662a.755.755,0,0,1,.923-.54,7.377,7.377,0,0,1,3.374,3.176c.709,1.063,1.7,3.013.167,3.876a6.739,6.739,0,0,1,.254.86c.154.719-.946,1.031-1.1.309-.078-.226-.184-.427-.273-.643a.314.314,0,0,1-.356-.13c-.02-.031-.035-.066-.054-.1-.013,0-.03,0-.044,0,1.272,4.3,2.457,8.3,5.585,11.9a36.468,36.468,0,0,1,7.265,8.668s1.181,2.009.664-.2q-.935-4.086-2-8.139-1.4-5.354-2.989-10.658t-3.269-10.552q-.478-1.491-.964-2.982a16.168,16.168,0,0,0-1.269-3.2c-.639-1.092-1.3-2.18-1.982-3.249a62.658,62.658,0,0,0-9.127-11.222c-.814-.79-1.616-1.587-2.446-2.356a8.236,8.236,0,0,0-2.529-1.975,16.108,16.108,0,0,0-3.4-.889c-2.444-.376-4.926-.373-7.384-.606-.365-.035-.73-.075-1.093-.122a.6.6,0,0,1-.257.393c-2.771,1.667-7.241,1.034-10.118-.023a3.837,3.837,0,0,1-2.609-2.222c-.351-1.285.978-2.293,1.9-2.879,2.908-1.843,6.124-.884,8.089,1.814a4.175,4.175,0,0,1,.557,1.072c3.271.554,6.548.962,9.839,1.5.561.092,1.114.2,1.654.332.317.076.626.173.948.231.183.032.851.154.551-.207a3.07,3.07,0,0,0-.719-.539c-.069-.046-.137-.093-.205-.141-.682-.482-1.3-1.074-1.945-1.6q-1.533-1.262-3.084-2.5c-2.074-1.662-4.163-3.307-6.236-4.97s-4.159-3.369-6.186-5.117c-.235-.2-2.807-2.436-2.782-2.466a2.906,2.906,0,0,1-2.287.939c-2.162-.085-4.34-1.728-5.819-3.175a6.368,6.368,0,0,1-1.641-4.608c-.1-.246-.227-.477-.319-.736a.7.7,0,0,1,.67-.886,7.218,7.218,0,0,1,.85.16,2.966,2.966,0,0,1,1.323.021,12.091,12.091,0,0,1,5.519,3.46,5.591,5.591,0,0,1,2.147,3.1c0,.024,0,.045,0,.068.048.126.069.249.108.375,3.528,2.839,7.2,5.629,10.85,8.473,0,0,1.773,1.523.813-.525a19.445,19.445,0,0,1-2.265-7.086c0,.037.007.077,0,.114a.326.326,0,0,1-.482.283,3.315,3.315,0,0,1-1.185-2.567,7.1,7.1,0,0,1-.763-7.157,2.951,2.951,0,0,1,2.368-1.86,1.4,1.4,0,0,1,1.249.9.664.664,0,0,1,.576.487,12.825,12.825,0,0,1,.435,4.667,6.343,6.343,0,0,1-.465,4.517.72.72,0,0,1-.861.31,26.373,26.373,0,0,0,1.252,4.989,29.006,29.006,0,0,0,2.657,5.088,11.314,11.314,0,0,0,2.055,2.11c7.343,5.99,14.212,12.44,19.075,20.28,0,0,1.924,3.007.847-.2-1.383-4.126-2.763-8.207-4.1-12.23-2.813-8.454-5.6-16.859-8.744-25.13a15.858,15.858,0,0,0-1.383-2.649,84.13,84.13,0,0,0-8.017-8.494c-1.85-1.721-3.761-3.374-5.708-4.984a9.441,9.441,0,0,0-2.932-1.924,15.413,15.413,0,0,0-3.415-.657c-.9-.1-1.813-.148-2.72-.2-.46-.028-.92-.055-1.38-.088a6.439,6.439,0,0,0-1.305-.115.674.674,0,0,1-.261.21c-1.027,2.353-6.492,1.45-8.239.892a.719.719,0,0,1-.33-1.178c1.558-1.8,5.034-3.629,7.442-2.9a2.273,2.273,0,0,1,1.514,1.914,30.429,30.429,0,0,1,6.764.832s1.964.582.258-.505c-4.409-3.458-8.914-6.82-13.313-10.408a.443.443,0,0,1-.654,0,8.425,8.425,0,0,0-1.5-1.272c-3.553-.419-9.646-3.515-8.6-7,.911-3.037,4.237-1.193,5.689.143a22.29,22.29,0,0,1,4.359,5.53,2.631,2.631,0,0,1,.7.078.4.4,0,0,1,.277.476.792.792,0,0,1-.442.564c.019.042.029.083.046.125,4.427,3.2,8.988,6.433,13.392,9.861,0,0,1.256,1.309.426-.293-1.191-2.217-2.237-4.542-3.32-6.831a7.628,7.628,0,0,1-1.732-1.347c-1.665-1.707-3.375-4.4-3.051-6.883.049-.382.488-.521.806-.472,4,.628,6.54,4.918,7.156,8.614a.585.585,0,0,1-.84.66,2.519,2.519,0,0,1-.624-.441,1.111,1.111,0,0,1-.342.156c1.2,2.335,2.117,4.887,3.092,7.23a9.732,9.732,0,0,0,2.345,2.748,82.3,82.3,0,0,1,13.3,13.581s1.154,1.342.536-.171c-2.049-5.065-4.276-10.066-6.789-14.977-3.1-6.057-6.415-12.006-9.749-17.943a22.862,22.862,0,0,0-3.668-5.319c-1.4-1.169-2.846-2.281-4.381-3.322-1.665-1.134-3.521-2.252-5.135-3.577a.78.78,0,0,1-.62.4c-2.9.326-10.341-4.508-7.682-7.922,3.329-4.28,8,3.575,8.317,6.552,2.693,1.88,5.385,3.776,8.029,5.724,0,0,2.738,2.572.691-.484-2.365-4.261-4.678-8.547-6.9-12.878-1.06,1.636-5.393-2.215-5.928-2.828-1.173-1.343-3.813-4.93-1.794-6.608,3.633-3.017,8.424,5.557,8.067,8.547q2.69,4.027,5.233,8.125s1.336,2.328.535-.1a34.126,34.126,0,0,1-2.021-8.646,16.538,16.538,0,0,0-.553-2.893c-.018-.047-.036-.1-.06-.161-.789-2.176-.873-4.665.74-6.476a.661.661,0,0,1,.924-.015c2.479,2.236,3.225,6.092,2.48,9.259a.519.519,0,0,1-.421.359c-.235,1.085-.969.741-1.669.071a31.581,31.581,0,0,0,.574,4.72c1.726,8.561,10.989,24.424,15.7,33.933,0,0,.827,1.727.729-.3a118.345,118.345,0,0,1-1.126-14.191c-1.225-4.386-2.768-9-3.4-13.548-1.287-1.468-1.858-3.88-2.173-5.626a7.648,7.648,0,0,1,1.149-6.123.643.643,0,0,1,1.011.114,22.18,22.18,0,0,1,1.6,4.022,18.021,18.021,0,0,1,.717,5.692.59.59,0,0,1-1.115.248,2.92,2.92,0,0,1-.2.564l.749,3.169c.484,2.043.962,4.093,1.4,6.146,0,0,.342,2.126.461-.043a37.824,37.824,0,0,1,2.288-10.416,11.056,11.056,0,0,1-.083-3.2,5.67,5.67,0,0,1,2.144-4.423.669.669,0,0,1,.825.094c2.611,2.887,2.13,8.178-1.67,9.8a.648.648,0,0,1-.785-.409A65.523,65.523,0,0,0,663.29,211.4c.017.859.055,1.719.105,2.578,0,0-.019,2.885.619.071a11.213,11.213,0,0,1,.412-1.2q.222-.612.466-1.218a32.98,32.98,0,0,1,2.258-4.594q.322-.54.669-1.067a18.8,18.8,0,0,0,1.069-1.677c.307-.592.577-1.2.88-1.8.022-.042.043-.085.066-.128l.031-.061a7.952,7.952,0,0,1,6.764-4.589.656.656,0,0,1,.636.482c.737,3.335-2.381,6.126-5.381,7.163a13.5,13.5,0,0,1-2.9.735,39.169,39.169,0,0,0-2.408,3.875,41.513,41.513,0,0,0-2.531,6.238,9.615,9.615,0,0,0-.255,3.2c.129,1.794.235,3.6.253,5.4a11.366,11.366,0,0,0,.741,4.659c5.159,11.442,9.711,23.18,13.8,35.117,0,0,.8,3.045.891-.036a39.885,39.885,0,0,1,1.13-6.1,53.461,53.461,0,0,1,1.676-5.211,9.942,9.942,0,0,0,.69-2.46,12.586,12.586,0,0,0-.045-2.552,45.257,45.257,0,0,0-.885-5.222c-.189-.863-.389-1.724-.586-2.585q-.148-.649-.293-1.3a5.9,5.9,0,0,0-.268-1.258c-2.128-.739-3.058-3.479-3.312-5.522-.189-1.523-.3-5.28,2.093-5.18,2.664.11,3.255,3.941,3.375,5.893a5.5,5.5,0,0,1-.635,3.11,12.446,12.446,0,0,1-.105,1.412.5.5,0,0,1-.244.347,34.994,34.994,0,0,1,1.811,9.9s-.008,1.5.68.064c.19-.4.375-.8.567-1.193a6.606,6.606,0,0,0,.546-2.337q.15-1.388.238-2.781c.121-1.842.173-3.688.207-5.534.032-1.8.047-3.6.087-5.394a8.936,8.936,0,0,1-.773-2.513c-.313-2.69-.331-6.361,1.144-8.764a.59.59,0,0,1,1.071.128q.178.49.323.992a18.377,18.377,0,0,1,.71,5.2,16.251,16.251,0,0,1-.677,5c.057.059.116.121.174.19a.419.419,0,0,1,.01.585.939.939,0,0,1-1.06.236,44.824,44.824,0,0,1-.481,10.63s-.357,1.992.677.133c2.271-4.164,4.755-8.161,7.09-11.927a.283.283,0,0,1-.065-.332.649.649,0,0,1-.116-.268,8.4,8.4,0,0,1,3.809-7.752,7.525,7.525,0,0,1,2.958-2.216.6.6,0,0,1,.682.272c2.074,3.617-.574,8.161-4.2,9.713a3.98,3.98,0,0,1-1.968.668q-1.272,2.5-2.583,4.975-.652,1.24-1.309,2.478l-.657,1.238c-.064.121-.331.457-.307.623C690.672,240.086,690.791,240.112,690.926,240.112Z" transform="translate(-513.816 -175.752)" fill="#0d927d"/>
  </g>
</svg>
