<svg xmlns="http://www.w3.org/2000/svg" width="179.905" height="183.625" viewBox="0 0 179.905 183.625">
  <path id="detail-popup2" d="M915.954,127.8c2.792-4.378,5.654-8.836,9.682-12.112,5.307-4.315,12.263-6.213,19.1-6.462a69.556,69.556,0,0,1,14.181,1.191c19.112,3.254,37.863,10.612,52.447,23.385s24.622,31.336,24.767,50.722a30.039,30.039,0,0,1-2.255,12.757c-2.853,6.234-8.624,10.543-14.167,14.577l-29.118,21.2c-5.13,3.735-10.414,7.545-16.541,9.2-14.782,3.989-29.619-5.394-41.579-14.952-13.779-11.011-32.315-26.325-36.844-44.356C891,164.527,906.675,142.35,915.954,127.8Z" transform="matrix(0.407, 0.914, -0.914, 0.407, -141.778, -861.844)" fill="#ebccc9"/>
</svg>
