<svg xmlns="http://www.w3.org/2000/svg" width="181.322" height="168.919" viewBox="0 0 181.322 168.919">
  <g id="detail-2" transform="translate(181.322 85.527) rotate(146)">
    <path id="Trazado_196" data-name="Trazado 196" d="M596.022,360.668c-2.116-2.343-3.051-5.544-5.033-8-1.2-1.489-2.775-2.69-3.722-4.353-2.05-3.6-.437-8.438,2.694-11.154,6.347-5.5,20.034-6.982,26.695-1.249,4.947,4.259,7.442,16.41,3.314,21.952C615.636,363.678,601.214,366.42,596.022,360.668Z" transform="translate(-485.947 -280.084)" fill="#eacbc9"/>
    <path id="Trazado_197" data-name="Trazado 197" d="M581.416,372.335c-2.407,2.031-5.338,1.77-8.729.724a9.251,9.251,0,0,1-3.344-2.117c-2.158-1.943-6.323-5.336-6.409-8.527-.12-4.537,7.159-5.412,10.411-5.618,3.444-.219,7.374-.26,9.753,2.241,2.946,3.1,2.146,8.174-.059,11.447A8.861,8.861,0,0,1,581.416,372.335Z" transform="translate(-494.945 -270.693)" fill="#eacbc9"/>
    <path id="Trazado_198" data-name="Trazado 198" d="M574.655,351.334a3.739,3.739,0,0,1-2.244.6c-4.7-.28-8.212-5.409-10.182-9.123-1.934-3.645-6.359-9.1-.626-11.554a45.935,45.935,0,0,1,13.64-3.5,6.523,6.523,0,0,1,3.282.285c5.937,2.634,1.384,16.587-1.1,20.272A10.141,10.141,0,0,1,574.655,351.334Z" transform="translate(-496.544 -281.841)" fill="#eacbc9"/>
    <path id="Trazado_199" data-name="Trazado 199" d="M593.327,319.66c-2.17.709-3.2,3.141-4.9,4.662-3.174,2.835-8.482,1.961-11.586-.952s-4.4-7.269-4.978-11.485A10.047,10.047,0,0,1,572,307.42c.788-2.424,3.084-4,5.317-5.236,4.911-2.712,10.9-4.652,16.06-2.46,5,2.122,6.86,7.34,6.644,12.391C599.735,318.826,599.282,317.712,593.327,319.66Z" transform="translate(-491.583 -292.949)" fill="#eacbc9"/>
    <path id="Trazado_200" data-name="Trazado 200" d="M628.2,321.547a26.536,26.536,0,0,1,.073,4.836,4.551,4.551,0,0,1-.377,1.6c-1.669,3.426-6.082,3.5-9.3,2.76a12.024,12.024,0,0,1-7.652-5.3,12.626,12.626,0,0,0-3.031-3.7c-1.516-1.16-3.476-2.139-3.962-4.16a4.815,4.815,0,0,1,2.017-4.7,14.145,14.145,0,0,1,4.954-2.09l6.206-1.728a13.024,13.024,0,0,1,4.82-.707,6.109,6.109,0,0,1,5.225,5.547C627.481,316.312,627.958,318.955,628.2,321.547Z" transform="translate(-479.224 -289.283)" fill="#eacbc9"/>
    <path id="Trazado_201" data-name="Trazado 201" d="M552.787,310.516c-2.438-1.626-5.1-3.6-5.479-6.509a6.937,6.937,0,0,1,1.859-5.27,13.094,13.094,0,0,1,5.063-3.917c2.57-.9,2.582.84,4.766,1.433a5.238,5.238,0,0,0,1.473.055,6.053,6.053,0,0,1,4.639,10.051c-.456.518-1,.957-1.418,1.5C560.607,311.88,557.642,313.754,552.787,310.516Z" transform="translate(-500.964 -294.567)" fill="#eacbc9"/>
    <path id="Trazado_202" data-name="Trazado 202" d="M535.583,333.827a9.159,9.159,0,0,1-4.147-9.379c.134-.677.347-1.341.425-2.028.22-1.977-.7-4.036-.069-5.923a4.773,4.773,0,0,1,4.586-2.954,8.575,8.575,0,0,1,5.268,2.218,50.113,50.113,0,0,1,4.061,4.178c1.293,1.362,2.749,2.7,3.3,4.495C551.353,332.043,541.643,337.477,535.583,333.827Z" transform="translate(-507.107 -287.276)" fill="#eacbc9"/>
    <path id="Trazado_203" data-name="Trazado 203" d="M535.66,367.838a6.628,6.628,0,0,1-5.591-4.731,11.3,11.3,0,0,1-.224-2.118l-.186-4.478a7.26,7.26,0,0,1,.294-2.994,5.289,5.289,0,0,1,2.263-2.438,9.883,9.883,0,0,1,7.814-1.008,10.436,10.436,0,0,1,6.143,4.971,6.942,6.942,0,0,1,.782,2.082C547.992,362.826,540.95,368.539,535.66,367.838Z" transform="translate(-507.739 -273.39)" fill="#eacbc9"/>
    <path id="Trazado_204" data-name="Trazado 204" d="M513.941,340.367a8.527,8.527,0,0,1,.977-2.205,14.737,14.737,0,0,1,2.756-3.765,5.643,5.643,0,0,1,4.259-1.6c2.359.251,4.139,2.535,4.406,4.892.114.992.011,2,.119,2.994a6.727,6.727,0,0,1,.112,2.087c-.461,2.223-4.6,4.2-6.718,4.222C516.533,347.033,513.116,343.84,513.941,340.367Z" transform="translate(-513.816 -279.887)" fill="#eacbc9"/>
  </g>
</svg>
