<svg xmlns="http://www.w3.org/2000/svg" width="167.073" height="174.669" viewBox="0 0 167.073 174.669">
  <g id="detail-popup1" transform="translate(-634.427 -288.416)">
    <path id="Trazado_224" data-name="Trazado 224" d="M915.954,127.8c2.792-4.378,5.654-8.836,9.682-12.112,5.307-4.315,12.263-6.213,19.1-6.462a69.556,69.556,0,0,1,14.181,1.191c19.112,3.254,37.863,10.612,52.447,23.385s24.622,31.336,24.767,50.722a30.039,30.039,0,0,1-2.255,12.757c-2.853,6.234-8.624,10.543-14.167,14.577l-29.118,21.2c-5.13,3.735-10.414,7.545-16.541,9.2-14.782,3.989-29.619-5.394-41.579-14.952-13.779-11.011-32.315-26.325-36.844-44.356C891,164.527,906.675,142.35,915.954,127.8Z" transform="translate(-258.97 219.893)" fill="#fff"/>
    <path id="Trazado_225" data-name="Trazado 225" d="M912.341,233.341a27.989,27.989,0,0,1,8.777-3.854c11.4-2.54,23.235,5.711,27.719,16.5,2.234,5.373,2.426,12.733-2.5,15.832-1.573.991-3.453,1.379-5.093,2.251-3.892,2.07-5.892,6.5-9.278,9.321-4.638,3.868-11.429,4.239-17.2,2.462S904,270.457,899.115,266.9c-2.036-1.485-4.131-3.031-5.4-5.209C888.636,252.984,905.913,237.41,912.341,233.341Z" transform="translate(-258.365 183.66)" fill="#5cc299"/>
    <path id="Trazado_226" data-name="Trazado 226" d="M1028.863,134.418q3.892-7.886,8.3-15.5c1.819-3.141,4.521-6.674,8.126-6.252a12.19,12.19,0,0,1,3.683,1.4A22.969,22.969,0,0,0,1075.5,108.4c.61-.714,1.2-1.716.729-2.529a2.314,2.314,0,0,0-1.346-.88c-5.53-1.875-11.639-1.419-17.245.216a79.553,79.553,0,0,0-14.693,6.447c-1.671.876-.58-.742-.58-.742a73.329,73.329,0,0,1,10.217-15.169c1.178-1.349,2.594-2.747,4.383-2.839,1.542-.081,2.933.837,4.385,1.365,4.677,1.7,9.762-.678,14.133-3.056q5.474-2.978,10.877-6.084c.931-.535,1.946-1.182,2.2-2.225a2.75,2.75,0,0,0-1.889-2.962,7.922,7.922,0,0,0-3.8-.144c-6.662.846-13.639,1.995-18.912,6.153-2.328,1.837-4.356,4.27-7.057,5.363-1.441.735-.354-.513-.354-.513,2.669-3.748,5.532-7.5,9.528-9.734,3.107-1.74,6.678-2.433,9.98-3.768a27.531,27.531,0,0,0,12.584-10.31,1.557,1.557,0,0,0,.359-1.3,1.47,1.47,0,0,0-.795-.731c-5.772-2.933-12.851.732-17.128,5.592-4.093,4.653-6.888,10.451-11.462,14.6-.78.739-.527-.493-.527-.493.827-5.53,6.5-9.206,10.356-13.5a25.427,25.427,0,0,0,5.786-11.238,26.02,26.02,0,0,0,.592-7.491c-.045-.71-.055-1.565-.973-1.531a3.036,3.036,0,0,0-1.459.5,10.153,10.153,0,0,0-1.472,1.173,16.785,16.785,0,0,0-2.371,2.738c-3.116,4.4-4.838,9.606-6.549,14.718-3.833,11.451-8.132,23.323-16.743,31.724-.862.43-.972-.652-.972-.652-.151-4.283,3.093-8.221,5.479-11.991a36.028,36.028,0,0,0,4.54-27.277c-.195-.819-.614-1.8-1.455-1.838a1.946,1.946,0,0,0-1.338.7c-4.191,4.009-6.365,9.739-7.262,15.469s-.644,11.566-.7,17.366c-.045,4.373-.287,8.829-1.828,12.922a42.511,42.511,0,0,1-3.776,7.131l-8.009,13.049c-.769,1.252-.786-.353-.786-.353-.418-4.363,2.154-8.633,3.925-12.774A38.469,38.469,0,0,0,1032.8,81.01c-.277-.529-.695-1.127-1.291-1.09-.5.031-.846.509-1.1.941a46.5,46.5,0,0,0-4.073,38.32c1.164,3.422,2.76,6.908,2.269,10.489a18.685,18.685,0,0,1-2.65,6.471L1015.57,154.5c-.474.839-.947.334-1.259-.3a4.526,4.526,0,0,1-.33-.919,13.661,13.661,0,0,1,.13-4.6c.282-2.288.852-4.525,1.331-6.775a67.694,67.694,0,0,0,.34-26.328c-.77-4.152-2.083-8.481-5.271-11.25a1.353,1.353,0,0,0-.974-.44c-.418.047-.7.438-.919.8a37.368,37.368,0,0,0-5.34,22.643c.841,9.583,5.335,18.392,9.214,27.2a8,8,0,0,1,.887,3.133,8.152,8.152,0,0,1-.942,3.285l-5.222,11.678c-.282.631-.7.091-.7.091-.1-.11-.186-.207-.228-.264l-1.076-1.478-.686-.943a2.006,2.006,0,0,1-.188-.316,5.7,5.7,0,0,1-.357-1.517c-.58-3.423-1.014-6.867-1.7-10.273a63.1,63.1,0,0,0-2.786-10.027,40.425,40.425,0,0,0-2.71-5.77,15.184,15.184,0,0,0-4.594-5.3c-1.741-1.427-1.989.906-1.989.906a60.141,60.141,0,0,0-.9,9.5,23.283,23.283,0,0,0,2.473,10.947,28.966,28.966,0,0,0,5.931,7.156c1.149,1.08,2.326,2.131,3.473,3.212a37.488,37.488,0,0,1,3.53,3.763,6.119,6.119,0,0,1,1.324,2.008,3.684,3.684,0,0,1-.239,2.132c-.226.643-.532,1.252-.767,1.891a56.152,56.152,0,0,0-2.228,7.849c-.1.479-.647,1.69-.082,2.037,0,0,.591.279.777-.174q3.851-9.39,7.7-18.779c.764-1.864,1.824-3.98,3.8-4.355a6.805,6.805,0,0,1,2.991.391,30.865,30.865,0,0,0,32.229-11.465,1.657,1.657,0,0,0,.44-1.311,1.584,1.584,0,0,0-.738-.83,15.918,15.918,0,0,0-11.556-1.979,34.877,34.877,0,0,0-11.08,4.486,86.587,86.587,0,0,0-9.151,6.046c-.725.55-1.463,1.1-2.151,1.694-.2.172-.858.994-1.179.919-.571-.135,1.1-3.264,1.234-3.547q1.2-2.619,2.447-5.218,2.465-5.145,5.093-10.212c1.429-2.753,3.52-5.877,6.621-5.8a9.638,9.638,0,0,1,2.771.675A35,35,0,0,0,1066.486,132c.69-.443.483-.943-.13-1.315l-.1-.061a17.341,17.341,0,0,0-2.053-.963,28.831,28.831,0,0,0-4.933-1.556,32.677,32.677,0,0,0-10.348-.564q-.906.093-1.806.233A43.794,43.794,0,0,0,1029.525,135C1027.842,136.089,1028.863,134.418,1028.863,134.418Zm38.674-55.756a1.067,1.067,0,0,1,.4-.492c.677-.527,1.285-1.11,1.916-1.688q1.5-1.37,3.042-2.685c.276-.233-.1-.618-.379-.4-.44.341-1.759,1.437-2.716,2.239-1.038.866-.246-.319-.246-.319,3.07-4.729,6.526-9.3,12.586-10.074,2.142-.272,6.651-.22,4.119,2.94a23.524,23.524,0,0,1-7.281,6.3c-3.435,1.819-7.125,2.874-10.725,4.216C1068.027,78.775,1067.419,79.065,1067.537,78.662Zm-4.307-3.776.4-.76c.951-1.792,3.048-4.322,3.433-6.395,0,0,0-.007,0-.01a.19.19,0,0,0-.032-.155.158.158,0,0,0-.068-.045.172.172,0,0,0-.071-.04.19.19,0,0,0-.151.04s-.007,0-.012,0a10.1,10.1,0,0,0-2.278,2.816c-.615.961-.321.1-.321.1a63.178,63.178,0,0,1,3.734-8.327c.989-1.822,1.938-3.7,3.082-5.436,1.2-1.812,4.464-5.328,3.9-.678-.931,7.618-5.8,13.963-11.227,19.217C1062.273,76.549,1063.231,74.886,1063.231,74.886Zm-15.5-3.1a84.247,84.247,0,0,1,5.144-9.1s.661-1.069,1.034.125a17.842,17.842,0,0,1,.866,6.584,49.774,49.774,0,0,1-7.55,22.764c-.931,1.909-.486-.272-.486-.272.946-4.968,2.133-9.906,3.014-14.89.083-.473-.633-.691-.728-.209-.53,2.7-1.289,5.479-2.066,8.3-.541,1.975-.626-.128-.626-.128C1046.269,80.5,1046.375,76.033,1047.733,71.79Zm-45.968,94.03a21.245,21.245,0,0,1-3.222-10.12.432.432,0,0,0-.864-.017,19.474,19.474,0,0,0,1.576,7.591c.534,1.445-.871.327-.871.327a17.416,17.416,0,0,1-5.434-6.9,27.434,27.434,0,0,1-1.919-11.294c.012-.255.4-7.629,1.969-5.754a40.835,40.835,0,0,1,7.821,16.415c.664,3.192.9,6.437,1.466,9.625C1002.491,166.928,1001.765,165.82,1001.765,165.82Zm11.563-20.164c-.447,2.607-.795-.03-.795-.03a91.5,91.5,0,0,1-1.967-20.075.419.419,0,0,0-.836-.016,157.311,157.311,0,0,0,.224,17.407c.173,2.4-.63.09-.63.09-2.431-6.005-4.421-12.119-4.341-18.771.053-4.5.429-9.149,2.174-13.349,2.88-6.932,5.231-2.446,6.4,2.379,1.463,6.041,2.786,12.76,2.048,18.988C1015.07,136.782,1014.04,141.195,1013.327,145.656ZM1018,163q.267-.159.534-.309a26.3,26.3,0,0,1,5.292-2.181c1.877-.574,3.778-1.064,5.684-1.533a.351.351,0,0,0-.164-.683c-1.639.235-3.329.525-5.01.9-2.078.73-.262-.562-.262-.562,6.445-4.91,13.582-9.813,21.655-7.179,1.61.527,4.337.682,2.287,2.911a28.4,28.4,0,0,1-3.049,2.985,33.971,33.971,0,0,1-8.756,5.243,27.762,27.762,0,0,1-17.595,1.23C1018.142,163.726,1017.266,163.447,1018,163Zm15.168-26.891c.308-.067.62-.1.773-.125,1.005-.175,2.006-.36,3.019-.492,2.39-.31,4.8-.449,7.208-.55.509-.022.533-.813.018-.8-1.945.054-4.7-.033-7.565.116-1.8.277-.079-.629-.079-.629,3.491-1.626,6.856-3.267,10.976-3.838a43.115,43.115,0,0,1,9.859-.412,22.649,22.649,0,0,1,3.965.714,18.826,18.826,0,0,1,1.961.661,4.391,4.391,0,0,1,1.6.775c.151.174.054.294-.092.458a8.449,8.449,0,0,1-2.092,1.456c-.779.455-1.574.887-2.384,1.285-.139.068-.278.139-.422.2a73.6,73.6,0,0,1-8.021,2.756,43.2,43.2,0,0,1-9.138,1.835,16.857,16.857,0,0,1-8.974-1.957c-.287-.146-1.494-.506-1.443-.943C1032.374,136.35,1032.77,136.2,1033.171,136.114Zm-3.335-18.232c-.165-5.241-.262-10.484-.128-15.793a.467.467,0,0,0-.933-.015c-.224,4.9-.693,10.036-.782,15.146-.069,2.456-.572.06-.572.06-1.065-5.7-2.344-11.251-1.486-17.248.36-2.509,4.262-22.17,7.054-14.916,4.635,12.049,2.339,22.085-2.481,32.9C1029.841,119.548,1029.836,117.882,1029.836,117.882Zm18.233-6.522a6.546,6.546,0,0,1,1.248-.206c1.921-.207,3.838-.372,5.767-.491,1.595-.1,3.19-.186,4.783-.32.408-.034.437-.673.013-.649-1.344.072-2.69.1-4.035.129-.684.015-1.367.03-2.051.051-.36.011-.717.061-1.076.086-.14.01-.942.116-.8-.151a.924.924,0,0,1,.575-.348l.114-.038c.453-.16.9-.331,1.349-.505.819-.319,1.633-.649,2.449-.975a47.959,47.959,0,0,1,4.976-1.75,22.327,22.327,0,0,1,3.193-.649c3.188-.4,6.942-.542,9.832,1.152,1.037.613-2.406,3.131-3.208,3.617a31.391,31.391,0,0,1-7.092,3.116,26.253,26.253,0,0,1-8.35,1.262,12.773,12.773,0,0,1-7.37-2.266C1048,112.13,1047.246,111.632,1048.07,111.36ZM1059.915,91.5q.86-.339,1.731-.662c2.9-1.067,5.835-2.064,8.3-3.974.249-.195-.051-.512-.3-.414-2.192.867-4.394,1.7-6.6,2.532-1.783.675-.206-.455-.206-.455a20.756,20.756,0,0,1,3.949-3.013,30.172,30.172,0,0,1,6.272-2.292c3.562-.96,7.442-2.075,11.156-2.02,4.318.063,1.537,2.838-.844,4.043-1.77.9-3.6,1.7-5.278,2.766-5.579,3.548-11.94,7.531-18.408,4.448C1058.217,92.04,1059.915,91.5,1059.915,91.5Z" transform="translate(-287.548 237.519)" fill="#ebccc9"/>
  </g>
</svg>
