<svg id="Componente_40_1" data-name="Componente 40 – 1" xmlns="http://www.w3.org/2000/svg" width="50.361" height="48.745" viewBox="0 0 50.361 48.745">
  <path id="Trazado_194" data-name="Trazado 194" d="M362.389,162.224a45.4,45.4,0,0,0-1.725-4.263,15.649,15.649,0,0,0-6.3-7.336,34.7,34.7,0,0,0-4.872-2.689,22.831,22.831,0,0,0-7.407-1.642c-6.585-.433-12.567-.124-18.211,3.393a19.14,19.14,0,0,0-5.088,4.421,24.757,24.757,0,0,0-3.73,7.915,34.125,34.125,0,0,0-1.623,7.813,22.073,22.073,0,0,0,3.37,12.386,27.106,27.106,0,0,0,6.115,7.627c2.749,2.226,6.185,3.325,9.538,4.282a28.235,28.235,0,0,0,9.257.656,19.007,19.007,0,0,0,5.648-1.733,39.56,39.56,0,0,0,5.29-2.433,22.565,22.565,0,0,0,9.908-12.425A25.617,25.617,0,0,0,362.389,162.224Z" transform="translate(-313.39 -146.143)" fill="#0d927d"/>
  <g id="Grupo_29" data-name="Grupo 29" transform="translate(-6.432 -161)">
    <g id="Grupo_28" data-name="Grupo 28" transform="translate(24.372 171.491)">
      <path id="Trazado_51" data-name="Trazado 51" d="M-1015.415,54.487c0-.068.007-.136.007-.2q0-6.151,0-12.3v-.157h-4.1c-.182,0-.182,0-.182-.175,0-1.535,0-3.069,0-4.6,0-.14.042-.175.178-.175,1.308,0,2.616,0,3.923,0h.183c0-.053,0-.1,0-.148,0-1.276-.008-2.552.011-3.828a6.963,6.963,0,0,1,.661-2.951,5.351,5.351,0,0,1,2.859-2.707,6.738,6.738,0,0,1,2.709-.514c1.071.016,2.141.064,3.212.1.2.007.4.041.6.051.111.006.148.047.148.158,0,.636,0,1.271,0,1.907,0,.749,0,1.5,0,2.248,0,.13-.036.17-.168.169-.813-.005-1.626-.015-2.438,0a5.787,5.787,0,0,0-1.1.128,1.544,1.544,0,0,0-1.246,1.3,4.585,4.585,0,0,0-.09.849c-.01,1.04,0,2.08,0,3.119,0,.031,0,.062.007.11h4.673c.2,0,.2,0,.175.187-.106.818-.216,1.635-.321,2.452q-.132,1.025-.255,2.051c-.031.261-.025.262-.287.262h-3.992v.2q0,6.082,0,12.165c0,.1,0,.2,0,.3Z" transform="translate(1019.692 -26.725)" fill="#ebccc9"/>
    </g>
  </g>
</svg>
