<svg id="Componente_42_1" data-name="Componente 42 – 1" xmlns="http://www.w3.org/2000/svg" width="50.361" height="48.745" viewBox="0 0 50.361 48.745">
  <g id="Grupo_214" data-name="Grupo 214">
    <path id="Trazado_191" data-name="Trazado 191" d="M362.389,162.224a45.4,45.4,0,0,0-1.725-4.263,15.649,15.649,0,0,0-6.3-7.336,34.7,34.7,0,0,0-4.872-2.689,22.831,22.831,0,0,0-7.407-1.642c-6.585-.433-12.567-.124-18.211,3.393a19.14,19.14,0,0,0-5.088,4.421,24.757,24.757,0,0,0-3.73,7.915,34.125,34.125,0,0,0-1.623,7.813,22.073,22.073,0,0,0,3.37,12.386,27.106,27.106,0,0,0,6.115,7.627c2.749,2.226,6.185,3.325,9.538,4.282a28.235,28.235,0,0,0,9.257.656,19.007,19.007,0,0,0,5.648-1.733,39.56,39.56,0,0,0,5.29-2.433,22.565,22.565,0,0,0,9.908-12.425A25.617,25.617,0,0,0,362.389,162.224Z" transform="translate(-313.39 -146.143)" fill="#0d927d"/>
  </g>
  <g id="Grupo_27" data-name="Grupo 27" transform="translate(0.336)">
    <g id="Grupo_26" data-name="Grupo 26" transform="translate(11.664 10.302)">
      <path id="Trazado_49" data-name="Trazado 49" d="M-689.945,25.165h-11.42a7.969,7.969,0,0,0-7.945,7.945V45.28a7.969,7.969,0,0,0,7.945,7.945h11.42A7.969,7.969,0,0,0-682,45.28V33.11A7.969,7.969,0,0,0-689.945,25.165ZM-684.1,45.28a5.8,5.8,0,0,1-1.719,4.127,5.8,5.8,0,0,1-4.127,1.719h-11.42a5.8,5.8,0,0,1-4.127-1.719,5.8,5.8,0,0,1-1.719-4.127V33.11a5.8,5.8,0,0,1,1.719-4.127,5.8,5.8,0,0,1,4.127-1.719h11.42a5.8,5.8,0,0,1,4.127,1.719A5.8,5.8,0,0,1-684.1,33.11Z" transform="translate(709.311 -25.165)" fill="#ebccc9"/>
      <path id="Trazado_50" data-name="Trazado 50" d="M-664.473,63.835a7.521,7.521,0,0,0-7.521,7.521,7.521,7.521,0,0,0,7.521,7.521,7.521,7.521,0,0,0,7.521-7.521A7.521,7.521,0,0,0-664.473,63.835Zm-.036,12.451a4.925,4.925,0,0,1-4.925-4.925,4.925,4.925,0,0,1,4.925-4.925,4.925,4.925,0,0,1,4.925,4.925A4.924,4.924,0,0,1-664.51,76.286Z" transform="translate(678.171 -57.434)" fill="#ebccc9"/>
      <ellipse id="Elipse_8" data-name="Elipse 8" cx="1.781" cy="1.781" rx="1.781" ry="1.781" transform="translate(19.558 4.503)" fill="#ebccc9"/>
    </g>
  </g>
</svg>
