<svg xmlns="http://www.w3.org/2000/svg" width="55" height="53.235" viewBox="0 0 55 53.235">
  <g id="view-more-icon" transform="translate(0 0)">
    <g id="Componente_47_1" data-name="Componente 47 – 1">
      <path id="Trazado_229" data-name="Trazado 229" d="M366.9,163.705a49.625,49.625,0,0,0-1.884-4.655,17.091,17.091,0,0,0-6.885-8.011,37.917,37.917,0,0,0-5.321-2.937,24.934,24.934,0,0,0-8.089-1.793c-7.191-.473-13.725-.136-19.889,3.705a20.9,20.9,0,0,0-5.557,4.828,27.038,27.038,0,0,0-4.074,8.644,37.266,37.266,0,0,0-1.772,8.533c-.325,4.768,1.315,9.452,3.681,13.527a29.6,29.6,0,0,0,6.678,8.33c3,2.431,6.755,3.632,10.417,4.677a30.837,30.837,0,0,0,10.11.716,20.759,20.759,0,0,0,6.169-1.893,43.205,43.205,0,0,0,5.778-2.657,24.643,24.643,0,0,0,10.821-13.57A27.977,27.977,0,0,0,366.9,163.705Z" transform="translate(-313.39 -146.143)" fill="#0d927d"/>
    </g>
    <g id="Grupo_249" data-name="Grupo 249" transform="translate(9.003 9.373)">
      <path id="Trazado_266" data-name="Trazado 266" d="M18.5,28.457A16.379,16.379,0,0,1,3.072,18.146a1.2,1.2,0,0,1,0-.834A16.379,16.379,0,0,1,18.5,7,16.379,16.379,0,0,1,33.922,17.311a1.2,1.2,0,0,1,0,.834A16.379,16.379,0,0,1,18.5,28.457ZM5.48,17.729A14.031,14.031,0,0,0,18.5,26.073a14.031,14.031,0,0,0,13.017-8.344A14.031,14.031,0,0,0,18.5,9.384,14.031,14.031,0,0,0,5.48,17.729Z" transform="translate(0 0)" fill="#ebccc9"/>
      <path id="Trazado_267" data-name="Trazado 267" d="M16.96,22.92a5.96,5.96,0,1,1,5.96-5.96A5.961,5.961,0,0,1,16.96,22.92Zm0-9.536a3.576,3.576,0,1,0,3.576,3.576A3.576,3.576,0,0,0,16.96,13.384Z" transform="translate(1.537 0.768)" fill="#ebccc9"/>
    </g>
  </g>
</svg>
